<svg width="802" height="621" viewBox="0 0 802 621" fill="none" xmlns="http://www.w3.org/2000/svg">
<path d="M339.527 341.351V341.36C339.589 386.071 307.977 422.672 268.106 422.672C228.926 422.672 196.685 386.068 196.685 341.359C196.685 296.646 228.237 259.983 268.106 259.983C307.982 259.983 340.215 296.588 339.527 341.351ZM679.673 53.4563L679.258 53.734L679.673 53.4563C679.243 52.8124 678.644 52.2969 677.941 51.9695C627.174 28.3157 572.975 11.0146 516.347 0.968665C514.563 0.652263 512.774 1.50667 511.909 3.10183C505.559 14.8156 498.465 29.5693 493.164 42.0024C492.578 43.3768 491.14 44.1867 489.663 43.9715C430.047 35.2848 370.959 35.2817 312.402 43.9629C310.922 44.1823 309.479 43.3722 308.89 41.9947C303.567 29.5555 296.32 14.7973 289.903 3.0846C289.034 1.49907 287.25 0.651232 285.473 0.966253C228.781 11.0133 174.518 28.3771 123.748 52.0933C123.04 52.4243 122.434 52.9511 122.004 53.602C18.3445 210.659 -10.0345 363.855 3.74612 514.872C3.85553 516.071 4.47559 517.17 5.44053 517.887C73.3956 568.398 139.302 599.428 204.105 619.887C205.844 620.436 207.736 619.807 208.801 618.326C223.679 597.621 237.062 575.726 248.756 552.739C249.898 550.494 248.825 547.771 246.491 546.857C225.823 538.769 205.929 529.083 186.977 518.014C184.987 516.852 184.836 514.026 186.683 512.609C190.223 509.894 193.707 507.109 197.12 504.272C198.096 503.461 199.458 503.283 200.611 503.816C331.041 564.09 472.5 564.094 601.396 503.823C602.545 503.286 603.906 503.456 604.884 504.262C608.333 507.104 611.829 509.893 615.356 512.613C617.191 514.028 617.036 516.84 615.054 517.999C596.033 529.127 576.074 538.824 555.384 546.921C553.048 547.835 551.976 550.56 553.121 552.806C564.809 575.742 578.142 597.69 593.071 618.398C594.135 619.874 596.024 620.501 597.76 619.953C662.629 599.494 728.6 568.463 796.56 517.886C797.524 517.169 798.143 516.065 798.253 514.87C814.402 339.927 769.605 188.12 679.673 53.4563ZM605.312 341.351V341.359C605.312 386.072 573.761 422.672 533.891 422.672C494.711 422.672 462.471 386.068 462.471 341.359C462.471 296.646 494.021 259.983 533.891 259.983C573.767 259.983 606.001 296.588 605.312 341.351Z" fill="black"/>
<path d="M339.527 341.351V341.36C339.589 386.071 307.977 422.672 268.106 422.672C228.926 422.672 196.685 386.068 196.685 341.359C196.685 296.646 228.237 259.983 268.106 259.983C307.982 259.983 340.215 296.588 339.527 341.351ZM679.673 53.4563L679.258 53.734L679.673 53.4563C679.243 52.8124 678.644 52.2969 677.941 51.9695C627.174 28.3157 572.975 11.0146 516.347 0.968665C514.563 0.652263 512.774 1.50667 511.909 3.10183C505.559 14.8156 498.465 29.5693 493.164 42.0024C492.578 43.3768 491.14 44.1867 489.663 43.9715C430.047 35.2848 370.959 35.2817 312.402 43.9629C310.922 44.1823 309.479 43.3722 308.89 41.9947C303.567 29.5555 296.32 14.7973 289.903 3.0846C289.034 1.49907 287.25 0.651232 285.473 0.966253C228.781 11.0133 174.518 28.3771 123.748 52.0933C123.04 52.4243 122.434 52.9511 122.004 53.602C18.3445 210.659 -10.0345 363.855 3.74612 514.872C3.85553 516.071 4.47559 517.17 5.44053 517.887C73.3956 568.398 139.302 599.428 204.105 619.887C205.844 620.436 207.736 619.807 208.801 618.326C223.679 597.621 237.062 575.726 248.756 552.739C249.898 550.494 248.825 547.771 246.491 546.857C225.823 538.769 205.929 529.083 186.977 518.014C184.987 516.852 184.836 514.026 186.683 512.609C190.223 509.894 193.707 507.109 197.12 504.272C198.096 503.461 199.458 503.283 200.611 503.816C331.041 564.09 472.5 564.094 601.396 503.823C602.545 503.286 603.906 503.456 604.884 504.262C608.333 507.104 611.829 509.893 615.356 512.613C617.191 514.028 617.036 516.84 615.054 517.999C596.033 529.127 576.074 538.824 555.384 546.921C553.048 547.835 551.976 550.56 553.121 552.806C564.809 575.742 578.142 597.69 593.071 618.398C594.135 619.874 596.024 620.501 597.76 619.953C662.629 599.494 728.6 568.463 796.56 517.886C797.524 517.169 798.143 516.065 798.253 514.87C814.402 339.927 769.605 188.12 679.673 53.4563ZM605.312 341.351V341.359C605.312 386.072 573.761 422.672 533.891 422.672C494.711 422.672 462.471 386.068 462.471 341.359C462.471 296.646 494.021 259.983 533.891 259.983C573.767 259.983 606.001 296.588 605.312 341.351Z" fill="url(#paint0_linear_397_1639)"/>
<path d="M339.527 341.351V341.36C339.589 386.071 307.977 422.672 268.106 422.672C228.926 422.672 196.685 386.068 196.685 341.359C196.685 296.646 228.237 259.983 268.106 259.983C307.982 259.983 340.215 296.588 339.527 341.351ZM679.673 53.4563L679.258 53.734L679.673 53.4563C679.243 52.8124 678.644 52.2969 677.941 51.9695C627.174 28.3157 572.975 11.0146 516.347 0.968665C514.563 0.652263 512.774 1.50667 511.909 3.10183C505.559 14.8156 498.465 29.5693 493.164 42.0024C492.578 43.3768 491.14 44.1867 489.663 43.9715C430.047 35.2848 370.959 35.2817 312.402 43.9629C310.922 44.1823 309.479 43.3722 308.89 41.9947C303.567 29.5555 296.32 14.7973 289.903 3.0846C289.034 1.49907 287.25 0.651232 285.473 0.966253C228.781 11.0133 174.518 28.3771 123.748 52.0933C123.04 52.4243 122.434 52.9511 122.004 53.602C18.3445 210.659 -10.0345 363.855 3.74612 514.872C3.85553 516.071 4.47559 517.17 5.44053 517.887C73.3956 568.398 139.302 599.428 204.105 619.887C205.844 620.436 207.736 619.807 208.801 618.326C223.679 597.621 237.062 575.726 248.756 552.739C249.898 550.494 248.825 547.771 246.491 546.857C225.823 538.769 205.929 529.083 186.977 518.014C184.987 516.852 184.836 514.026 186.683 512.609C190.223 509.894 193.707 507.109 197.12 504.272C198.096 503.461 199.458 503.283 200.611 503.816C331.041 564.09 472.5 564.094 601.396 503.823C602.545 503.286 603.906 503.456 604.884 504.262C608.333 507.104 611.829 509.893 615.356 512.613C617.191 514.028 617.036 516.84 615.054 517.999C596.033 529.127 576.074 538.824 555.384 546.921C553.048 547.835 551.976 550.56 553.121 552.806C564.809 575.742 578.142 597.69 593.071 618.398C594.135 619.874 596.024 620.501 597.76 619.953C662.629 599.494 728.6 568.463 796.56 517.886C797.524 517.169 798.143 516.065 798.253 514.87C814.402 339.927 769.605 188.12 679.673 53.4563ZM605.312 341.351V341.359C605.312 386.072 573.761 422.672 533.891 422.672C494.711 422.672 462.471 386.068 462.471 341.359C462.471 296.646 494.021 259.983 533.891 259.983C573.767 259.983 606.001 296.588 605.312 341.351Z" stroke="url(#paint1_linear_397_1639)"/>
<path d="M339.527 341.351V341.36C339.589 386.071 307.977 422.672 268.106 422.672C228.926 422.672 196.685 386.068 196.685 341.359C196.685 296.646 228.237 259.983 268.106 259.983C307.982 259.983 340.215 296.588 339.527 341.351ZM679.673 53.4563L679.258 53.734L679.673 53.4563C679.243 52.8124 678.644 52.2969 677.941 51.9695C627.174 28.3157 572.975 11.0146 516.347 0.968665C514.563 0.652263 512.774 1.50667 511.909 3.10183C505.559 14.8156 498.465 29.5693 493.164 42.0024C492.578 43.3768 491.14 44.1867 489.663 43.9715C430.047 35.2848 370.959 35.2817 312.402 43.9629C310.922 44.1823 309.479 43.3722 308.89 41.9947C303.567 29.5555 296.32 14.7973 289.903 3.0846C289.034 1.49907 287.25 0.651232 285.473 0.966253C228.781 11.0133 174.518 28.3771 123.748 52.0933C123.04 52.4243 122.434 52.9511 122.004 53.602C18.3445 210.659 -10.0345 363.855 3.74612 514.872C3.85553 516.071 4.47559 517.17 5.44053 517.887C73.3956 568.398 139.302 599.428 204.105 619.887C205.844 620.436 207.736 619.807 208.801 618.326C223.679 597.621 237.062 575.726 248.756 552.739C249.898 550.494 248.825 547.771 246.491 546.857C225.823 538.769 205.929 529.083 186.977 518.014C184.987 516.852 184.836 514.026 186.683 512.609C190.223 509.894 193.707 507.109 197.12 504.272C198.096 503.461 199.458 503.283 200.611 503.816C331.041 564.09 472.5 564.094 601.396 503.823C602.545 503.286 603.906 503.456 604.884 504.262C608.333 507.104 611.829 509.893 615.356 512.613C617.191 514.028 617.036 516.84 615.054 517.999C596.033 529.127 576.074 538.824 555.384 546.921C553.048 547.835 551.976 550.56 553.121 552.806C564.809 575.742 578.142 597.69 593.071 618.398C594.135 619.874 596.024 620.501 597.76 619.953C662.629 599.494 728.6 568.463 796.56 517.886C797.524 517.169 798.143 516.065 798.253 514.87C814.402 339.927 769.605 188.12 679.673 53.4563ZM605.312 341.351V341.359C605.312 386.072 573.761 422.672 533.891 422.672C494.711 422.672 462.471 386.068 462.471 341.359C462.471 296.646 494.021 259.983 533.891 259.983C573.767 259.983 606.001 296.588 605.312 341.351Z" stroke="url(#paint2_linear_397_1639)"/>
<defs>
<linearGradient id="paint0_linear_397_1639" x1="401" y1="1" x2="401" y2="620.278" gradientUnits="userSpaceOnUse">
<stop stop-color="#5865F2" stop-opacity="0.08"/>
<stop offset="0.536458" stop-color="#5865F2" stop-opacity="0"/>
</linearGradient>
<linearGradient id="paint1_linear_397_1639" x1="401" y1="1" x2="401" y2="620.278" gradientUnits="userSpaceOnUse">
<stop stop-color="#5865F2"/>
<stop offset="0.624297" stop-color="#5865F2" stop-opacity="0.5"/>
<stop offset="1" stop-color="#5865F2" stop-opacity="0.3"/>
</linearGradient>
<linearGradient id="paint2_linear_397_1639" x1="401" y1="1" x2="401" y2="620.278" gradientUnits="userSpaceOnUse">
<stop offset="0.5625" stop-opacity="0"/>
<stop offset="0.848958"/>
</linearGradient>
</defs>
</svg>
