<svg width="369" height="380" viewBox="0 0 369 380" fill="none" xmlns="http://www.w3.org/2000/svg">
<path d="M306.56 2.29857L307.045 4.23886L306.559 2.29857L301.848 3.47638C301.506 3.56187 301.171 3.67989 300.853 3.82491V3.8249C227.097 37.4948 188.224 71.5234 131.477 122.009C130.743 122.662 129.634 122.587 129.011 121.885C108.942 99.2523 87.2055 71.967 74.1211 50.7802C73.7355 50.1558 73.7991 49.3382 74.3042 48.761L80.7326 41.4142C82.6734 39.1962 82.6926 35.6936 80.3132 33.6132C65.5738 20.7257 47.1134 22.4041 39.6004 23.8381C38.5706 24.0347 37.6555 24.5175 36.9137 25.1906L38.2577 26.6718L36.9137 25.1906C33.5265 28.2643 28.8171 32.6461 24.8277 36.5943C22.8354 38.5662 21.0032 40.4489 19.6002 42.0157C18.9 42.7977 18.2871 43.5227 17.8085 44.1545C17.369 44.7349 16.9121 45.4028 16.6816 46.034C16.428 46.7283 16.5325 47.3685 16.5672 47.5811C16.5686 47.5895 16.5698 47.5972 16.5709 47.6042C24.0491 94.3392 56.7034 150.318 78.226 181.773C78.67 182.422 78.6312 183.301 78.1087 183.926C38.4216 231.422 16.2887 275.808 2.40469 329.18C2.07249 330.457 2.16224 331.9 2.87759 333.175C5.10331 337.142 9.40029 342.374 13.8824 347.341C18.4003 352.348 23.235 357.225 26.6493 360.518C27.6229 361.457 28.9032 362.004 30.2264 362.09C44.9341 363.053 54.1718 361.567 59.7508 358.984C65.4152 356.361 67.566 352.428 67.191 348.805C67.0525 347.468 66.2899 346.469 65.5903 345.828L56.324 337.334C55.7584 336.815 55.6315 336.05 55.9226 335.461C61.8455 323.473 75.0366 306.468 89.6248 289.61C104.168 272.804 119.946 256.317 130.894 245.411C131.546 244.761 132.577 244.734 133.271 245.364C185.342 292.681 260.5 352.301 328.391 376.869C329.815 377.384 331.373 377.306 332.737 376.664C344.912 370.926 355.896 364.135 365.558 353.388C366.496 352.345 367.025 350.97 366.974 349.528C366.645 340.231 363.307 330.077 360.8 324.006C359.582 321.057 356.219 319.873 353.42 321.073L344.262 324.997C343.771 325.208 343.304 325.189 342.911 324.993C322.611 314.922 292.734 289.907 263.165 262.165C233.663 234.489 204.682 204.308 186.227 184.12C185.621 183.458 185.622 182.52 186.215 181.867C203.621 162.681 233.293 132.49 260.843 106.431C274.618 93.4008 287.841 81.4249 298.719 72.3822C304.16 67.8594 308.992 64.0897 312.999 61.294C317.069 58.4553 320.102 56.7557 321.996 56.1888C322.025 56.1801 322.078 56.1698 322.188 56.2097C322.312 56.2548 322.484 56.3587 322.66 56.5431L324.108 55.1638L322.66 56.5431L328.59 62.7699C330.992 65.2921 335.097 65.1142 337.18 62.2194C338.411 60.5072 340.06 58.1696 342.148 55.1331C343.421 53.2817 344.142 50.9662 344.531 48.5578C344.922 46.1318 344.995 43.4818 344.88 40.8578C344.648 35.6127 343.652 30.2699 342.733 26.6285C342.441 25.4677 341.783 24.4661 340.906 23.7237L339.614 25.2505L340.906 23.7237L316.841 3.36055C315.802 2.48205 314.486 2 313.126 2H308.985C308.167 2 307.353 2.10028 306.56 2.29857Z" fill="black"/>
<path d="M306.56 2.29857L307.045 4.23886L306.559 2.29857L301.848 3.47638C301.506 3.56187 301.171 3.67989 300.853 3.82491V3.8249C227.097 37.4948 188.224 71.5234 131.477 122.009C130.743 122.662 129.634 122.587 129.011 121.885C108.942 99.2523 87.2055 71.967 74.1211 50.7802C73.7355 50.1558 73.7991 49.3382 74.3042 48.761L80.7326 41.4142C82.6734 39.1962 82.6926 35.6936 80.3132 33.6132C65.5738 20.7257 47.1134 22.4041 39.6004 23.8381C38.5706 24.0347 37.6555 24.5175 36.9137 25.1906L38.2577 26.6718L36.9137 25.1906C33.5265 28.2643 28.8171 32.6461 24.8277 36.5943C22.8354 38.5662 21.0032 40.4489 19.6002 42.0157C18.9 42.7977 18.2871 43.5227 17.8085 44.1545C17.369 44.7349 16.9121 45.4028 16.6816 46.034C16.428 46.7283 16.5325 47.3685 16.5672 47.5811C16.5686 47.5895 16.5698 47.5972 16.5709 47.6042C24.0491 94.3392 56.7034 150.318 78.226 181.773C78.67 182.422 78.6312 183.301 78.1087 183.926C38.4216 231.422 16.2887 275.808 2.40469 329.18C2.07249 330.457 2.16224 331.9 2.87759 333.175C5.10331 337.142 9.40029 342.374 13.8824 347.341C18.4003 352.348 23.235 357.225 26.6493 360.518C27.6229 361.457 28.9032 362.004 30.2264 362.09C44.9341 363.053 54.1718 361.567 59.7508 358.984C65.4152 356.361 67.566 352.428 67.191 348.805C67.0525 347.468 66.2899 346.469 65.5903 345.828L56.324 337.334C55.7584 336.815 55.6315 336.05 55.9226 335.461C61.8455 323.473 75.0366 306.468 89.6248 289.61C104.168 272.804 119.946 256.317 130.894 245.411C131.546 244.761 132.577 244.734 133.271 245.364C185.342 292.681 260.5 352.301 328.391 376.869C329.815 377.384 331.373 377.306 332.737 376.664C344.912 370.926 355.896 364.135 365.558 353.388C366.496 352.345 367.025 350.97 366.974 349.528C366.645 340.231 363.307 330.077 360.8 324.006C359.582 321.057 356.219 319.873 353.42 321.073L344.262 324.997C343.771 325.208 343.304 325.189 342.911 324.993C322.611 314.922 292.734 289.907 263.165 262.165C233.663 234.489 204.682 204.308 186.227 184.12C185.621 183.458 185.622 182.52 186.215 181.867C203.621 162.681 233.293 132.49 260.843 106.431C274.618 93.4008 287.841 81.4249 298.719 72.3822C304.16 67.8594 308.992 64.0897 312.999 61.294C317.069 58.4553 320.102 56.7557 321.996 56.1888C322.025 56.1801 322.078 56.1698 322.188 56.2097C322.312 56.2548 322.484 56.3587 322.66 56.5431L324.108 55.1638L322.66 56.5431L328.59 62.7699C330.992 65.2921 335.097 65.1142 337.18 62.2194C338.411 60.5072 340.06 58.1696 342.148 55.1331C343.421 53.2817 344.142 50.9662 344.531 48.5578C344.922 46.1318 344.995 43.4818 344.88 40.8578C344.648 35.6127 343.652 30.2699 342.733 26.6285C342.441 25.4677 341.783 24.4661 340.906 23.7237L339.614 25.2505L340.906 23.7237L316.841 3.36055C315.802 2.48205 314.486 2 313.126 2H308.985C308.167 2 307.353 2.10028 306.56 2.29857Z" stroke="url(#paint0_radial_424_1971)" stroke-width="4" stroke-linejoin="round"/>
<path d="M306.56 2.29857L307.045 4.23886L306.559 2.29857L301.848 3.47638C301.506 3.56187 301.171 3.67989 300.853 3.82491V3.8249C227.097 37.4948 188.224 71.5234 131.477 122.009C130.743 122.662 129.634 122.587 129.011 121.885C108.942 99.2523 87.2055 71.967 74.1211 50.7802C73.7355 50.1558 73.7991 49.3382 74.3042 48.761L80.7326 41.4142C82.6734 39.1962 82.6926 35.6936 80.3132 33.6132C65.5738 20.7257 47.1134 22.4041 39.6004 23.8381C38.5706 24.0347 37.6555 24.5175 36.9137 25.1906L38.2577 26.6718L36.9137 25.1906C33.5265 28.2643 28.8171 32.6461 24.8277 36.5943C22.8354 38.5662 21.0032 40.4489 19.6002 42.0157C18.9 42.7977 18.2871 43.5227 17.8085 44.1545C17.369 44.7349 16.9121 45.4028 16.6816 46.034C16.428 46.7283 16.5325 47.3685 16.5672 47.5811C16.5686 47.5895 16.5698 47.5972 16.5709 47.6042C24.0491 94.3392 56.7034 150.318 78.226 181.773C78.67 182.422 78.6312 183.301 78.1087 183.926C38.4216 231.422 16.2887 275.808 2.40469 329.18C2.07249 330.457 2.16224 331.9 2.87759 333.175C5.10331 337.142 9.40029 342.374 13.8824 347.341C18.4003 352.348 23.235 357.225 26.6493 360.518C27.6229 361.457 28.9032 362.004 30.2264 362.09C44.9341 363.053 54.1718 361.567 59.7508 358.984C65.4152 356.361 67.566 352.428 67.191 348.805C67.0525 347.468 66.2899 346.469 65.5903 345.828L56.324 337.334C55.7584 336.815 55.6315 336.05 55.9226 335.461C61.8455 323.473 75.0366 306.468 89.6248 289.61C104.168 272.804 119.946 256.317 130.894 245.411C131.546 244.761 132.577 244.734 133.271 245.364C185.342 292.681 260.5 352.301 328.391 376.869C329.815 377.384 331.373 377.306 332.737 376.664C344.912 370.926 355.896 364.135 365.558 353.388C366.496 352.345 367.025 350.97 366.974 349.528C366.645 340.231 363.307 330.077 360.8 324.006C359.582 321.057 356.219 319.873 353.42 321.073L344.262 324.997C343.771 325.208 343.304 325.189 342.911 324.993C322.611 314.922 292.734 289.907 263.165 262.165C233.663 234.489 204.682 204.308 186.227 184.12C185.621 183.458 185.622 182.52 186.215 181.867C203.621 162.681 233.293 132.49 260.843 106.431C274.618 93.4008 287.841 81.4249 298.719 72.3822C304.16 67.8594 308.992 64.0897 312.999 61.294C317.069 58.4553 320.102 56.7557 321.996 56.1888C322.025 56.1801 322.078 56.1698 322.188 56.2097C322.312 56.2548 322.484 56.3587 322.66 56.5431L324.108 55.1638L322.66 56.5431L328.59 62.7699C330.992 65.2921 335.097 65.1142 337.18 62.2194C338.411 60.5072 340.06 58.1696 342.148 55.1331C343.421 53.2817 344.142 50.9662 344.531 48.5578C344.922 46.1318 344.995 43.4818 344.88 40.8578C344.648 35.6127 343.652 30.2699 342.733 26.6285C342.441 25.4677 341.783 24.4661 340.906 23.7237L339.614 25.2505L340.906 23.7237L316.841 3.36055C315.802 2.48205 314.486 2 313.126 2H308.985C308.167 2 307.353 2.10028 306.56 2.29857Z" stroke="url(#paint1_radial_424_1971)" stroke-width="4" stroke-linejoin="round"/>
<defs>
<radialGradient id="paint0_radial_424_1971" cx="0" cy="0" r="1" gradientUnits="userSpaceOnUse" gradientTransform="translate(184.5 189.75) rotate(90) scale(185.75 180.5)">
<stop stop-color="white"/>
<stop offset="0.624297" stop-color="white" stop-opacity="0.5"/>
<stop offset="1" stop-color="white" stop-opacity="0.3"/>
</radialGradient>
<radialGradient id="paint1_radial_424_1971" cx="0" cy="0" r="1" gradientUnits="userSpaceOnUse" gradientTransform="translate(184.5 189.75) rotate(90) scale(185.75 180.5)">
<stop offset="0.333333" stop-opacity="0.1"/>
<stop offset="0.880208"/>
</radialGradient>
</defs>
</svg>
