<svg width="32" height="32" viewBox="0 0 32 32" fill="none" xmlns="http://www.w3.org/2000/svg">
<g id="Editor">
<path id="Radiation" fill-rule="evenodd" clip-rule="evenodd" d="M9.88563 3.10619C10.1985 2.95777 10.567 3.1088 10.7013 3.42798L14.2257 11.8043C14.36 12.1232 14.2066 12.4867 13.9132 12.6702C12.9731 13.2583 12.3002 14.2337 12.1179 15.373C12.0632 15.7148 11.7879 15.9973 11.4417 15.9973L2.35681 15.9973C2.01063 15.9973 1.72857 15.7162 1.74353 15.3704C1.97815 9.94692 5.24205 5.30898 9.88563 3.10619ZM15.99 19.9188C16.5968 19.9188 17.1714 19.7809 17.6843 19.5349C17.9966 19.385 18.386 19.4503 18.5834 19.7349L23.7631 27.1996C23.9603 27.4839 23.8907 27.8754 23.5982 28.0602C21.3964 29.4518 18.7873 30.2573 15.99 30.2573C13.1927 30.2573 10.5836 29.4518 8.38178 28.0602C8.08934 27.8754 8.01971 27.4839 8.21694 27.1996L13.3966 19.7348C13.5941 19.4503 13.9834 19.385 14.2957 19.5349C14.8086 19.7809 15.3832 19.9188 15.99 19.9188ZM22.0944 3.10619C21.7815 2.95778 21.413 3.1088 21.2787 3.42798L17.7543 11.8043C17.6201 12.1232 17.7734 12.4867 18.0668 12.6702C19.0069 13.2583 19.6798 14.2337 19.8621 15.373C19.9168 15.7148 20.1921 15.9973 20.5383 15.9973L29.6232 15.9973C29.9694 15.9973 30.2514 15.7162 30.2365 15.3703C30.0019 9.94691 26.738 5.30899 22.0944 3.10619ZM15.99 18.4928C17.3682 18.4928 18.4855 17.3755 18.4855 15.9973C18.4855 14.619 17.3682 13.5018 15.99 13.5018C14.6118 13.5018 13.4945 14.619 13.4945 15.9973C13.4945 17.3755 14.6118 18.4928 15.99 18.4928Z" fill="url(#paint0_radial_330_48)" fill-opacity="0.08"/>
<g id="UELogo" filter="url(#filter0_d_330_48)">
<path fill-rule="evenodd" clip-rule="evenodd" d="M25.5084 18.3046C25.2328 19.6347 24.0056 23.0463 20.0948 24.8943L18.5253 23.1287L15.8769 25.7929C14.3689 25.7726 12.886 25.4039 11.5441 24.7156C10.2023 24.0273 9.0377 23.038 8.14146 21.8251C8.42323 21.9127 8.71421 21.9674 9.00858 21.9879C9.44214 21.9958 9.912 21.8369 9.912 21.1051V13.92C9.91848 13.7351 9.8815 13.5513 9.80404 13.3832C9.72659 13.2152 9.6108 13.0677 9.46599 12.9526C9.32118 12.8374 9.15139 12.7579 8.97024 12.7203C8.7891 12.6827 8.60166 12.6881 8.42298 12.736C7.19685 13.0166 6.21594 16.078 6.21594 16.078C6.20231 14.6642 6.49675 13.2645 7.07879 11.9761C7.66084 10.6877 8.51651 9.54148 9.58633 8.61721C11.4128 7.06934 13.197 6.53377 14.5527 6.32385C13.2137 7.087 12.4604 8.33275 12.4604 9.37839C12.4604 11.0548 13.4727 10.8566 13.7728 10.6094V20.3125C13.8236 20.4345 13.8895 20.5495 13.969 20.6549C14.1031 20.8403 14.2797 20.9909 14.484 21.094C14.6883 21.1971 14.9143 21.2497 15.1432 21.2473C16.1574 21.2473 17.4728 20.0899 17.4728 20.0899V12.2328C17.4728 11.4334 16.8705 10.4672 16.2673 10.1376C16.2673 10.1376 17.3835 9.94143 18.2467 10.5996C18.4086 10.4014 18.5808 10.2118 18.7627 10.0317C20.7696 8.06005 22.6638 7.50094 24.2411 7.2204C24.2411 7.2204 21.3699 9.47648 21.3699 12.4977C21.3699 14.7469 21.4278 20.2311 21.4278 20.2311C22.496 21.2572 24.0782 19.776 25.5084 18.3046Z" fill="white"/>
</g>
</g>
<defs>
<filter id="filter0_d_330_48" x="4.17799" y="6.32385" width="23.3679" height="23.544" filterUnits="userSpaceOnUse" color-interpolation-filters="sRGB">
<feFlood flood-opacity="0" result="BackgroundImageFix"/>
<feColorMatrix in="SourceAlpha" type="matrix" values="0 0 0 0 0 0 0 0 0 0 0 0 0 0 0 0 0 0 127 0" result="hardAlpha"/>
<feOffset dy="2.0375"/>
<feGaussianBlur stdDeviation="1.01875"/>
<feComposite in2="hardAlpha" operator="out"/>
<feColorMatrix type="matrix" values="0 0 0 0 0 0 0 0 0 0 0 0 0 0 0 0 0 0 0.15 0"/>
<feBlend mode="normal" in2="BackgroundImageFix" result="effect1_dropShadow_330_48"/>
<feBlend mode="normal" in="SourceGraphic" in2="effect1_dropShadow_330_48" result="shape"/>
</filter>
<radialGradient id="paint0_radial_330_48" cx="0" cy="0" r="1" gradientUnits="userSpaceOnUse" gradientTransform="translate(15.99 16.5372) rotate(90) scale(13.7201 13.6583)">
<stop offset="0.375" stop-color="white" stop-opacity="0"/>
<stop offset="1" stop-color="white"/>
</radialGradient>
</defs>
</svg>
