<svg width="314" height="56" viewBox="0 0 314 56" fill="none" xmlns="http://www.w3.org/2000/svg">
<rect x="234.475" width="78.8907" height="55.9999" rx="7.87511" fill="#FF9100"/>
<path d="M242.35 31.3469V15.7502H249.78V29.7404C249.78 32.8196 250.884 34.0244 253.93 34.0244H261.293C264.339 34.0244 265.443 32.8196 265.443 29.7404V15.7502H272.874V31.3469C272.874 37.3714 269.761 40.2497 262.933 40.2497H252.29C245.462 40.2497 242.35 37.3714 242.35 31.3469Z" fill="black"/>
<path d="M278.547 39.982V15.7502H305.055V21.3731H285.978V25.2555H304.051V30.2759H285.978V34.1583H305.49V39.982H278.547Z" fill="black"/>
<path d="M0.633789 33.8571V32.1836H8.06396C8.09743 34.7607 9.13498 34.9616 11.277 34.9616H20.3806C21.9537 34.9616 23.5602 34.7942 23.5602 32.9199C23.5602 30.8114 22.69 30.6775 13.1178 30.6775C1.93909 30.6775 0.667258 29.3387 0.667258 23.3812C0.667258 18.9967 1.06889 15.6163 10.4403 15.6163H20.8157C29.3839 15.6163 30.1871 18.5282 30.1871 22.7788V23.5485H22.757C22.757 21.7747 22.5561 21.0383 19.1423 21.0383H10.9088C9.23538 21.0383 8.09743 21.6073 8.09743 22.9126C8.09743 25.0212 9.0011 25.0881 16.9668 25.0547C28.5137 25.0212 31.1912 25.724 31.1912 32.7861C31.1912 39.3126 28.9822 40.3836 19.1088 40.3836H10.1056C3.3448 40.3836 0.633789 39.1117 0.633789 33.8571Z" fill="white"/>
<path d="M34.6757 21.9086V15.8841H62.9906V21.9086H52.5482V40.1158H45.1181V21.9086H34.6757Z" fill="white"/>
<path d="M62.0344 40.1158L75.1544 15.8841H84.827L98.1477 40.1158H89.8808L87.5714 35.8318H72.5103L70.3348 40.1158H62.0344ZM79.9739 21.5069L75.2882 30.6106H84.7935L79.9739 21.5069Z" fill="white"/>
<path d="M101.458 40.1158V15.8841H108.888V33.8905H125.59V40.1158H101.458Z" fill="white"/>
<path d="M129.419 40.1158V15.8841H136.85V24.7869H140.33L149.702 15.8841H159.81L146.69 27.7322L161.349 40.1158H150.84L140.13 30.8114H136.85V40.1158H129.419Z" fill="white"/>
<path d="M164.8 40.1158V15.8841H191.308V21.5069H172.23V25.3894H190.304V30.4097H172.23V34.2922H191.743V40.1158H164.8Z" fill="white"/>
<path d="M204.342 21.9086V27.7991H216.626C218.634 27.7991 219.37 26.9959 219.37 25.2555V24.4522C219.37 22.3102 218.299 21.9086 215.956 21.9086H204.342ZM196.912 40.1158V15.8841H219.337C225.06 15.8841 226.6 18.729 226.6 23.08V24.6196C226.6 27.8661 225.863 29.7738 222.449 30.5771V30.644C224.658 31.0457 226.499 32.0163 226.499 35.9991V40.1158H219.069V37.204C219.069 34.6603 218.333 33.8236 216.023 33.8236H204.342V40.1158H196.912Z" fill="white"/>
</svg>
