<svg width="159" height="32" viewBox="0 0 159 32" fill="none" xmlns="http://www.w3.org/2000/svg">
<path d="M0 18.975V18.125H3.774C3.791 19.434 4.318 19.536 5.406 19.536H10.03C10.829 19.536 11.645 19.451 11.645 18.499C11.645 17.428 11.203 17.36 6.341 17.36C0.663 17.36 0.017 16.68 0.017 13.654C0.017 11.427 0.221 9.71 4.981 9.71H10.251C14.603 9.71 15.011 11.189 15.011 13.348V13.739H11.237C11.237 12.838 11.135 12.464 9.401 12.464H5.219C4.369 12.464 3.791 12.753 3.791 13.416C3.791 14.487 4.25 14.521 8.296 14.504C14.161 14.487 15.521 14.844 15.521 18.431C15.521 21.746 14.399 22.29 9.384 22.29H4.811C1.377 22.29 0 21.644 0 18.975Z" fill="white"/>
<path d="M17.2909 12.906V9.846H31.6729V12.906H26.3689V22.154H22.5949V12.906H17.2909Z" fill="white"/>
<path d="M31.1872 22.154L37.8512 9.846H42.7642L49.5302 22.154H45.3312L44.1582 19.978H36.5082L35.4032 22.154H31.1872ZM40.2992 12.702L37.9192 17.326H42.7472L40.2992 12.702Z" fill="white"/>
<path d="M51.2117 22.154V9.846H54.9857V18.992H63.4687V22.154H51.2117Z" fill="white"/>
<path d="M65.414 22.154V9.846H69.188V14.368H70.956L75.716 9.846H80.85L74.186 15.864L81.632 22.154H76.294L70.854 17.428H69.188V22.154H65.414Z" fill="white"/>
<path d="M83.3849 22.154V9.846H96.8489V12.702H87.1589V14.674H96.3389V17.224H87.1589V19.196H97.0699V22.154H83.3849Z" fill="white"/>
<path d="M103.47 12.906V15.898H109.709C110.729 15.898 111.103 15.49 111.103 14.606V14.198C111.103 13.11 110.559 12.906 109.369 12.906H103.47ZM99.6956 22.154V9.846H111.086C113.993 9.846 114.775 11.291 114.775 13.501V14.283C114.775 15.932 114.401 16.901 112.667 17.309V17.343C113.789 17.547 114.724 18.04 114.724 20.063V22.154H110.95V20.675C110.95 19.383 110.576 18.958 109.403 18.958H103.47V22.154H99.6956Z" fill="white"/>
<rect x="118.775" y="1.778" width="40.0709" height="28.444" rx="4" fill="#FF9100"/>
<path d="M122.775 17.7V9.778H126.549V16.884C126.549 18.448 127.11 19.06 128.657 19.06H132.397C133.944 19.06 134.505 18.448 134.505 16.884V9.778H138.279V17.7C138.279 20.76 136.698 22.222 133.23 22.222H127.824C124.356 22.222 122.775 20.76 122.775 17.7Z" fill="black"/>
<path d="M141.16 22.086V9.778H154.624V12.634H144.934V14.606H154.114V17.156H144.934V19.128H154.845V22.086H141.16Z" fill="black"/>
</svg>
