<svg xmlns="http://www.w3.org/2000/svg" xmlns:xlink="http://www.w3.org/1999/xlink" fill="none" viewBox="0 0 384 262"><g clip-path="url(#a)"><path fill="#000" d="M0 0h384v262H0z"/><path fill="url(#b)" d="M0 0h384v262H0z"/><g filter="url(#c)" opacity=".24"><mask id="f" width="107" height="109" x="138.23" y="77.556" fill="#000" maskUnits="userSpaceOnUse"><path fill="#fff" d="M138.23 77.556h107v109h-107z"/><path fill-rule="evenodd" d="M241.647 148.228c1.459-1.37 3.625-.137 2.915 1.733-3.353 8.835-11.002 21.722-27.139 29.839a1.966 1.966 0 0 1-2.347-.46l-6.42-7.223a2 2 0 0 0-2.913-.081l-12.8 12.876a1.96 1.96 0 0 1-1.445.583 55.025 55.025 0 0 1-39.532-18.439c-1.046-1.176.175-3.055 1.745-2.946 2.439.045 5.082-.849 5.082-4.965v-40.417a6.647 6.647 0 0 0-5.298-6.748 6.645 6.645 0 0 0-3.078.089c-2.799.64-5.372 3.858-7.44 7.455-1.132 1.969-4.183 1.249-3.694-.968A54.762 54.762 0 0 1 156.961 88.9c6.04-5.118 11.997-8.269 17.431-10.236 2.088-.756 3.722 2.66 2.409 4.45-2.397 3.272-3.673 6.84-3.673 10.068 0 5.01 1.607 7.043 3.367 7.64 1.6.543 4.015 1.832 4.015 3.522v49.943c0 .264.05.526.162.765.259.551.574 1.074.942 1.56a8.05 8.05 0 0 0 6.604 3.333c4.658 0 10.444-4.339 12.412-5.933.447-.362.692-.908.692-1.482v-43.292c0-2.59-1.123-5.491-2.725-7.84-1.065-1.563-.232-4.137 1.621-3.757a14.07 14.07 0 0 1 3.831 1.364c.951.51 2.164.38 2.885-.423a40.807 40.807 0 0 1 1.644-1.725c8.152-8.009 15.973-11.874 23.031-13.998 1.993-.6 3.448 2.204 2.074 3.768-4.647 5.29-10.439 13.923-10.439 24.101 0 11.42.265 37.666.317 42.668.005.538.22 1.054.644 1.383 4.755 3.685 11.131-.622 17.442-6.551Z" clip-rule="evenodd"/></mask><path fill="#000" fill-rule="evenodd" d="M241.647 148.228c1.459-1.37 3.625-.137 2.915 1.733-3.353 8.835-11.002 21.722-27.139 29.839a1.966 1.966 0 0 1-2.347-.46l-6.42-7.223a2 2 0 0 0-2.913-.081l-12.8 12.876a1.96 1.96 0 0 1-1.445.583 55.025 55.025 0 0 1-39.532-18.439c-1.046-1.176.175-3.055 1.745-2.946 2.439.045 5.082-.849 5.082-4.965v-40.417a6.647 6.647 0 0 0-5.298-6.748 6.645 6.645 0 0 0-3.078.089c-2.799.64-5.372 3.858-7.44 7.455-1.132 1.969-4.183 1.249-3.694-.968A54.762 54.762 0 0 1 156.961 88.9c6.04-5.118 11.997-8.269 17.431-10.236 2.088-.756 3.722 2.66 2.409 4.45-2.397 3.272-3.673 6.84-3.673 10.068 0 5.01 1.607 7.043 3.367 7.64 1.6.543 4.015 1.832 4.015 3.522v49.943c0 .264.05.526.162.765.259.551.574 1.074.942 1.56a8.05 8.05 0 0 0 6.604 3.333c4.658 0 10.444-4.339 12.412-5.933.447-.362.692-.908.692-1.482v-43.292c0-2.59-1.123-5.491-2.725-7.84-1.065-1.563-.232-4.137 1.621-3.757a14.07 14.07 0 0 1 3.831 1.364c.951.51 2.164.38 2.885-.423a40.807 40.807 0 0 1 1.644-1.725c8.152-8.009 15.973-11.874 23.031-13.998 1.993-.6 3.448 2.204 2.074 3.768-4.647 5.29-10.439 13.923-10.439 24.101 0 11.42.265 37.666.317 42.668.005.538.22 1.054.644 1.383 4.755 3.685 11.131-.622 17.442-6.551Z" clip-rule="evenodd"/><path fill="url(#d)" fill-rule="evenodd" d="M241.647 148.228c1.459-1.37 3.625-.137 2.915 1.733-3.353 8.835-11.002 21.722-27.139 29.839a1.966 1.966 0 0 1-2.347-.46l-6.42-7.223a2 2 0 0 0-2.913-.081l-12.8 12.876a1.96 1.96 0 0 1-1.445.583 55.025 55.025 0 0 1-39.532-18.439c-1.046-1.176.175-3.055 1.745-2.946 2.439.045 5.082-.849 5.082-4.965v-40.417a6.647 6.647 0 0 0-5.298-6.748 6.645 6.645 0 0 0-3.078.089c-2.799.64-5.372 3.858-7.44 7.455-1.132 1.969-4.183 1.249-3.694-.968A54.762 54.762 0 0 1 156.961 88.9c6.04-5.118 11.997-8.269 17.431-10.236 2.088-.756 3.722 2.66 2.409 4.45-2.397 3.272-3.673 6.84-3.673 10.068 0 5.01 1.607 7.043 3.367 7.64 1.6.543 4.015 1.832 4.015 3.522v49.943c0 .264.05.526.162.765.259.551.574 1.074.942 1.56a8.05 8.05 0 0 0 6.604 3.333c4.658 0 10.444-4.339 12.412-5.933.447-.362.692-.908.692-1.482v-43.292c0-2.59-1.123-5.491-2.725-7.84-1.065-1.563-.232-4.137 1.621-3.757a14.07 14.07 0 0 1 3.831 1.364c.951.51 2.164.38 2.885-.423a40.807 40.807 0 0 1 1.644-1.725c8.152-8.009 15.973-11.874 23.031-13.998 1.993-.6 3.448 2.204 2.074 3.768-4.647 5.29-10.439 13.923-10.439 24.101 0 11.42.265 37.666.317 42.668.005.538.22 1.054.644 1.383 4.755 3.685 11.131-.622 17.442-6.551Z" clip-rule="evenodd"/><path stroke="url(#e)" stroke-opacity=".08" d="M241.647 148.228c1.459-1.37 3.625-.137 2.915 1.733-3.353 8.835-11.002 21.722-27.139 29.839a1.966 1.966 0 0 1-2.347-.46l-6.42-7.223a2 2 0 0 0-2.913-.081l-12.8 12.876a1.96 1.96 0 0 1-1.445.583 55.025 55.025 0 0 1-39.532-18.439c-1.046-1.176.175-3.055 1.745-2.946 2.439.045 5.082-.849 5.082-4.965v-40.417a6.647 6.647 0 0 0-5.298-6.748 6.645 6.645 0 0 0-3.078.089c-2.799.64-5.372 3.858-7.44 7.455-1.132 1.969-4.183 1.249-3.694-.968A54.762 54.762 0 0 1 156.961 88.9c6.04-5.118 11.997-8.269 17.431-10.236 2.088-.756 3.722 2.66 2.409 4.45-2.397 3.272-3.673 6.84-3.673 10.068 0 5.01 1.607 7.043 3.367 7.64 1.6.543 4.015 1.832 4.015 3.522v49.943c0 .264.05.526.162.765.259.551.574 1.074.942 1.56a8.05 8.05 0 0 0 6.604 3.333c4.658 0 10.444-4.339 12.412-5.933.447-.362.692-.908.692-1.482v-43.292c0-2.59-1.123-5.491-2.725-7.84-1.065-1.563-.232-4.137 1.621-3.757a14.07 14.07 0 0 1 3.831 1.364c.951.51 2.164.38 2.885-.423a40.807 40.807 0 0 1 1.644-1.725c8.152-8.009 15.973-11.874 23.031-13.998 1.993-.6 3.448 2.204 2.074 3.768-4.647 5.29-10.439 13.923-10.439 24.101 0 11.42.265 37.666.317 42.668.005.538.22 1.054.644 1.383 4.755 3.685 11.131-.622 17.442-6.551Z" clip-rule="evenodd" mask="url(#f)"/></g><g filter="url(#g)"><mask id="i" fill="#fff"><path fill-rule="evenodd" d="M246.523 143.392c-1.551 7.482-8.453 26.672-30.452 37.067l-8.828-9.932-14.898 14.986a55.015 55.015 0 0 1-43.511-22.319c1.585.493 3.221.801 4.877.916 2.439.045 5.082-.849 5.082-4.965v-40.417a6.647 6.647 0 0 0-5.298-6.748 6.659 6.659 0 0 0-3.078.088c-6.897 1.579-12.414 18.799-12.414 18.799A54.756 54.756 0 0 1 156.961 88.9c10.274-8.707 20.31-11.72 27.936-12.9-7.532 4.293-11.769 11.3-11.769 17.182 0 9.429 5.694 8.315 7.382 6.924v54.58a8.789 8.789 0 0 0 1.104 1.926 8.05 8.05 0 0 0 6.604 3.333c5.705 0 13.104-6.511 13.104-6.511v-44.196c0-4.497-3.387-9.932-6.781-11.786 0 0 6.279-1.103 11.135 2.599a40.833 40.833 0 0 1 2.902-3.195c11.289-11.09 21.944-14.235 30.816-15.813 0 0-16.15 12.69-16.15 29.685 0 12.652.325 43.5.325 43.5 6.009 5.772 14.909-2.56 22.954-10.836Z" clip-rule="evenodd"/></mask><path fill="#000" fill-rule="evenodd" d="M246.523 143.392c-1.551 7.482-8.453 26.672-30.452 37.067l-8.828-9.932-14.898 14.986a55.015 55.015 0 0 1-43.511-22.319c1.585.493 3.221.801 4.877.916 2.439.045 5.082-.849 5.082-4.965v-40.417a6.647 6.647 0 0 0-5.298-6.748 6.659 6.659 0 0 0-3.078.088c-6.897 1.579-12.414 18.799-12.414 18.799A54.756 54.756 0 0 1 156.961 88.9c10.274-8.707 20.31-11.72 27.936-12.9-7.532 4.293-11.769 11.3-11.769 17.182 0 9.429 5.694 8.315 7.382 6.924v54.58a8.789 8.789 0 0 0 1.104 1.926 8.05 8.05 0 0 0 6.604 3.333c5.705 0 13.104-6.511 13.104-6.511v-44.196c0-4.497-3.387-9.932-6.781-11.786 0 0 6.279-1.103 11.135 2.599a40.833 40.833 0 0 1 2.902-3.195c11.289-11.09 21.944-14.235 30.816-15.813 0 0-16.15 12.69-16.15 29.685 0 12.652.325 43.5.325 43.5 6.009 5.772 14.909-2.56 22.954-10.836Z" clip-rule="evenodd"/><path stroke="url(#h)" d="M246.523 143.392c-1.551 7.482-8.453 26.672-30.452 37.067l-8.828-9.932-14.898 14.986a55.015 55.015 0 0 1-43.511-22.319c1.585.493 3.221.801 4.877.916 2.439.045 5.082-.849 5.082-4.965v-40.417a6.647 6.647 0 0 0-5.298-6.748 6.659 6.659 0 0 0-3.078.088c-6.897 1.579-12.414 18.799-12.414 18.799A54.756 54.756 0 0 1 156.961 88.9c10.274-8.707 20.31-11.72 27.936-12.9-7.532 4.293-11.769 11.3-11.769 17.182 0 9.429 5.694 8.315 7.382 6.924v54.58a8.789 8.789 0 0 0 1.104 1.926 8.05 8.05 0 0 0 6.604 3.333c5.705 0 13.104-6.511 13.104-6.511v-44.196c0-4.497-3.387-9.932-6.781-11.786 0 0 6.279-1.103 11.135 2.599a40.833 40.833 0 0 1 2.902-3.195c11.289-11.09 21.944-14.235 30.816-15.813 0 0-16.15 12.69-16.15 29.685 0 12.652.325 43.5.325 43.5 6.009 5.772 14.909-2.56 22.954-10.836Z" clip-rule="evenodd" mask="url(#i)"/></g><path fill="url(#j)" d="M0 0h384v262H0z"/></g><defs><linearGradient id="d" x1="138" x2="246.523" y1="130.757" y2="130.757" gradientUnits="userSpaceOnUse"><stop stop-color="#11D8EA"/><stop offset="1" stop-color="#801BB2"/></linearGradient><linearGradient id="e" x1="192.261" x2="192.261" y1="76" y2="185.513" gradientUnits="userSpaceOnUse"><stop stop-color="#fff"/><stop offset=".624" stop-color="#fff" stop-opacity=".5"/><stop offset="1" stop-color="#fff" stop-opacity=".3"/></linearGradient><linearGradient id="h" x1="138" x2="246.523" y1="130.757" y2="130.757" gradientUnits="userSpaceOnUse"><stop stop-color="#11D8EA"/><stop offset="1" stop-color="#801BB2"/></linearGradient><linearGradient id="j" x1="192" x2="192" y1="0" y2="262" gradientUnits="userSpaceOnUse"><stop offset=".531" stop-opacity="0"/><stop offset="1"/></linearGradient><filter id="c" width="178.471" height="179.943" x="102.73" y="42.053" color-interpolation-filters="sRGB" filterUnits="userSpaceOnUse"><feFlood flood-opacity="0" result="BackgroundImageFix"/><feBlend in="SourceGraphic" in2="BackgroundImageFix" result="shape"/><feGaussianBlur result="effect1_foregroundBlur_384_261" stdDeviation="18"/></filter><filter id="g" width="132.523" height="133.513" x="126" y="76" color-interpolation-filters="sRGB" filterUnits="userSpaceOnUse"><feFlood flood-opacity="0" result="BackgroundImageFix"/><feColorMatrix in="SourceAlpha" result="hardAlpha" values="0 0 0 0 0 0 0 0 0 0 0 0 0 0 0 0 0 0 127 0"/><feOffset dy="12"/><feGaussianBlur stdDeviation="6"/><feComposite in2="hardAlpha" operator="out"/><feColorMatrix values="0 0 0 0 0 0 0 0 0 0 0 0 0 0 0 0 0 0 0.15 0"/><feBlend in2="BackgroundImageFix" result="effect1_dropShadow_384_261"/><feBlend in="SourceGraphic" in2="effect1_dropShadow_384_261" result="shape"/></filter><clipPath id="a"><path fill="#fff" d="M0 0h384v262H0z"/></clipPath><pattern id="b" width="1" height="1" patternContentUnits="objectBoundingBox"><use xlink:href="#k" transform="scale(.00087 .00127)"/></pattern></defs></svg>