<svg xmlns="http://www.w3.org/2000/svg" version="1.1" xmlns:xlink="http://www.w3.org/1999/xlink" xmlns:svgjs="http://svgjs.com/svgjs" width="32" height="32"><svg width="32" height="32" viewBox="0 0 32 32" fill="none" xmlns="http://www.w3.org/2000/svg">
<path d="M10.1115 3.29246C10.3621 3.17614 10.6558 3.29646 10.7629 3.55106L14.3126 11.9873C14.4197 12.2418 14.2981 12.5322 14.0598 12.6715C13.0535 13.2598 12.3382 14.2916 12.182 15.4988C12.1466 15.7727 11.9261 15.9976 11.65 15.9976L2.5 15.9976C2.22386 15.9976 1.99908 15.7735 2.00877 15.4975C2.19887 10.0827 5.46404 5.45008 10.1115 3.29246Z" fill="url(#paint0_radial_25_293)" fill-opacity="0.4" style=""></path>
<path d="M16 19.8476C16.6369 19.8476 17.2376 19.6929 17.7667 19.4192C18.0121 19.2922 18.3228 19.3451 18.4803 19.5721L23.6971 27.0904C23.8544 27.3171 23.7987 27.6293 23.5667 27.7786C21.3848 29.1829 18.7875 29.9976 16 29.9976C13.2125 29.9976 10.6152 29.1829 8.43332 27.7786C8.20126 27.6293 8.14562 27.3171 8.30294 27.0904L13.5197 19.5721C13.6772 19.3451 13.9879 19.2922 14.2333 19.4192C14.7624 19.6929 15.3631 19.8476 16 19.8476Z" fill="url(#paint1_radial_25_293)" fill-opacity="0.4" style=""></path>
<path d="M21.8885 3.29246C21.6379 3.17615 21.3442 3.29646 21.2371 3.55107L17.6874 11.9873C17.5803 12.2418 17.7019 12.5322 17.9402 12.6715C18.9465 13.2598 19.6618 14.2916 19.818 15.4988C19.8534 15.7727 20.0739 15.9976 20.35 15.9976L29.5 15.9976C29.7761 15.9976 30.0009 15.7735 29.9912 15.4975C29.8011 10.0827 26.536 5.45008 21.8885 3.29246Z" fill="url(#paint2_radial_25_293)" fill-opacity="0.4" style=""></path>
<path d="M16 18.4476C17.3531 18.4476 18.45 17.3507 18.45 15.9976C18.45 14.6445 17.3531 13.5476 16 13.5476C14.6469 13.5476 13.55 14.6445 13.55 15.9976C13.55 17.3507 14.6469 18.4476 16 18.4476Z" fill="url(#paint3_radial_25_293)" fill-opacity="0.4" style=""></path>
<path fill-rule="evenodd" clip-rule="evenodd" d="M25.5084 18.3046C25.2328 19.6347 24.0057 23.0463 20.0948 24.8943L18.5253 23.1287L15.8769 25.7929C14.3689 25.7726 12.8861 25.4039 11.5442 24.7156C10.2023 24.0273 9.03772 23.038 8.14148 21.8251C8.42325 21.9127 8.71424 21.9674 9.0086 21.9879C9.44216 21.9958 9.91202 21.8369 9.91202 21.1051V13.92C9.9185 13.7351 9.88153 13.5512 9.80407 13.3832C9.72661 13.2152 9.61082 13.0677 9.46601 12.9526C9.3212 12.8374 9.15141 12.7579 8.97027 12.7203C8.78912 12.6827 8.60168 12.688 8.42301 12.736C7.19687 13.0166 6.21597 16.078 6.21597 16.078C6.20233 14.6642 6.49678 13.2645 7.07882 11.9761C7.66086 10.6877 8.51654 9.54148 9.58636 8.6172C11.4128 7.06934 13.1971 6.53376 14.5527 6.32385C13.2137 7.08699 12.4604 8.33274 12.4604 9.37839C12.4604 11.0548 13.4727 10.8566 13.7729 10.6094V20.3125C13.8236 20.4344 13.8895 20.5495 13.969 20.6549C14.1031 20.8403 14.2797 20.9909 14.484 21.094C14.6883 21.1971 14.9144 21.2496 15.1432 21.2473C16.1574 21.2473 17.4728 20.0899 17.4728 20.0899V12.2328C17.4728 11.4334 16.8706 10.4672 16.2673 10.1376C16.2673 10.1376 17.3836 9.94143 18.2468 10.5996C18.4086 10.4014 18.5809 10.2118 18.7627 10.0317C20.7697 8.06005 22.6638 7.50093 24.2411 7.2204C24.2411 7.2204 21.37 9.47648 21.37 12.4977C21.37 14.7469 21.4278 20.2311 21.4278 20.2311C22.496 21.2571 24.0782 19.776 25.5084 18.3046Z" fill="#0E0E0E" style="fill:#0E0E0E;fill:color(display-p3 0.0549 0.0549 0.0549);fill-opacity:1;"></path>
<defs>
<radialGradient id="SvgjsRadialGradient1003" cx="0" cy="0" r="1" gradientUnits="userSpaceOnUse" gradientTransform="translate(16 15.9999) rotate(90) scale(16 16.6496)">
<stop offset="0.348958" stop-color="#0E0E0E" stop-opacity="0" style="stop-color:none;stop-opacity:0;"></stop>
<stop offset="1" stop-color="#0E0E0E" style="stop-color:#0E0E0E;stop-color:color(display-p3 0.0549 0.0549 0.0549);stop-opacity:1;"></stop>
</radialGradient>
<radialGradient id="SvgjsRadialGradient1002" cx="0" cy="0" r="1" gradientUnits="userSpaceOnUse" gradientTransform="translate(16 15.9999) rotate(90) scale(16 16.6496)">
<stop offset="0.348958" stop-color="#0E0E0E" stop-opacity="0" style="stop-color:none;stop-opacity:0;"></stop>
<stop offset="1" stop-color="#0E0E0E" style="stop-color:#0E0E0E;stop-color:color(display-p3 0.0549 0.0549 0.0549);stop-opacity:1;"></stop>
</radialGradient>
<radialGradient id="SvgjsRadialGradient1001" cx="0" cy="0" r="1" gradientUnits="userSpaceOnUse" gradientTransform="translate(16 15.9999) rotate(90) scale(16 16.6496)">
<stop offset="0.348958" stop-color="#0E0E0E" stop-opacity="0" style="stop-color:none;stop-opacity:0;"></stop>
<stop offset="1" stop-color="#0E0E0E" style="stop-color:#0E0E0E;stop-color:color(display-p3 0.0549 0.0549 0.0549);stop-opacity:1;"></stop>
</radialGradient>
<radialGradient id="SvgjsRadialGradient1000" cx="0" cy="0" r="1" gradientUnits="userSpaceOnUse" gradientTransform="translate(16 15.9999) rotate(90) scale(16 16.6496)">
<stop offset="0.348958" stop-color="#0E0E0E" stop-opacity="0" style="stop-color:none;stop-opacity:0;"></stop>
<stop offset="1" stop-color="#0E0E0E" style="stop-color:#0E0E0E;stop-color:color(display-p3 0.0549 0.0549 0.0549);stop-opacity:1;"></stop>
</radialGradient>
</defs>
</svg><style>@media (prefers-color-scheme: light) { :root { filter: none; } }
@media (prefers-color-scheme: dark) { :root { filter: contrast(0.3846153846153846) brightness(4.5); } }
</style></svg>