<svg width="512" height="512" viewBox="0 0 512 512" fill="none" xmlns="http://www.w3.org/2000/svg">
<g clip-path="url(#clip0_232_2)">
<circle cx="256" cy="256" r="256" fill="black"/>
<path opacity="0.1" fill-rule="evenodd" clip-rule="evenodd" d="M28.0133 244.586C27.7032 250.882 32.8427 256.003 39.1462 256.003H181.813C188.117 256.003 193.118 250.85 194.251 244.649C197.39 227.466 207.525 212.726 221.595 203.489C226.863 200.031 229.668 193.42 227.224 187.612L171.876 56.0722C169.431 50.2603 162.719 47.5076 157.038 50.2446C83.7619 85.5521 32.2364 158.85 28.0133 244.586ZM213.699 316.967C217.294 311.785 224.385 310.613 230.13 313.215C238.019 316.787 246.777 318.776 256 318.776C265.223 318.776 273.981 316.787 281.87 313.215C287.615 310.613 294.706 311.785 298.302 316.967L379.642 434.192C383.233 439.368 381.967 446.501 376.621 449.834C341.623 471.66 300.284 484.27 256 484.27C211.716 484.27 170.377 471.66 135.379 449.834C130.033 446.501 128.767 439.368 132.358 434.192L213.699 316.967ZM330.187 256.003C323.883 256.003 318.882 250.85 317.749 244.649C314.61 227.466 304.476 212.726 290.405 203.489C285.137 200.031 282.333 193.42 284.776 187.612L340.124 56.0722C342.569 50.2604 349.282 47.5076 354.962 50.2447C428.238 85.5521 479.764 158.85 483.987 244.586C484.297 250.882 479.157 256.003 472.854 256.003H330.187ZM256 295.95C278.062 295.95 295.947 278.065 295.947 256.003C295.947 233.941 278.062 216.056 256 216.056C233.938 216.056 216.053 233.941 216.053 256.003C216.053 278.065 233.938 295.95 256 295.95Z" fill="url(#paint0_radial_232_2)"/>
<g filter="url(#filter0_d_232_2)">
<path fill-rule="evenodd" clip-rule="evenodd" d="M408.134 292.874C403.724 314.155 384.09 368.741 321.516 398.309L296.405 370.059L254.03 412.685C229.903 412.361 206.177 406.462 184.706 395.449C163.236 384.436 144.603 368.608 130.263 349.201C134.772 350.603 139.428 351.478 144.137 351.806C151.074 351.932 158.592 349.389 158.592 337.681V222.719C158.696 219.761 158.104 216.82 156.865 214.131C155.625 211.443 153.773 209.083 151.456 207.241C149.139 205.399 146.422 204.126 143.524 203.524C140.626 202.922 137.627 203.008 134.768 203.776C115.15 208.265 99.4552 257.247 99.4552 257.247C99.2371 234.627 103.948 212.232 113.261 191.617C122.574 171.002 136.264 152.663 153.381 137.875C182.605 113.109 211.153 104.54 232.843 101.181C211.42 113.391 199.366 133.323 199.366 150.054C199.366 176.876 215.563 173.705 220.366 169.75V325C221.177 326.951 222.232 328.791 223.504 330.478C225.65 333.444 228.475 335.854 231.744 337.503C235.013 339.152 238.63 339.994 242.291 339.957C258.519 339.957 279.565 321.437 279.565 321.437V195.725C279.565 182.934 269.929 167.475 260.277 162.201C260.277 162.201 278.137 159.062 291.948 169.593C294.538 166.421 297.294 163.388 300.203 160.506C332.314 128.96 362.62 120.015 387.857 115.526C387.857 115.526 341.919 151.623 341.919 199.962C341.919 235.95 342.845 323.698 342.845 323.698C359.937 340.114 385.252 316.415 408.134 292.874Z" fill="white"/>
</g>
</g>
<defs>
<filter id="filter0_d_232_2" x="66.848" y="101.181" width="373.886" height="376.704" filterUnits="userSpaceOnUse" color-interpolation-filters="sRGB">
<feFlood flood-opacity="0" result="BackgroundImageFix"/>
<feColorMatrix in="SourceAlpha" type="matrix" values="0 0 0 0 0 0 0 0 0 0 0 0 0 0 0 0 0 0 127 0" result="hardAlpha"/>
<feOffset dy="32.6"/>
<feGaussianBlur stdDeviation="16.3"/>
<feComposite in2="hardAlpha" operator="out"/>
<feColorMatrix type="matrix" values="0 0 0 0 0 0 0 0 0 0 0 0 0 0 0 0 0 0 0.15 0"/>
<feBlend mode="normal" in2="BackgroundImageFix" result="effect1_dropShadow_232_2"/>
<feBlend mode="normal" in="SourceGraphic" in2="effect1_dropShadow_232_2" result="shape"/>
</filter>
<radialGradient id="paint0_radial_232_2" cx="0" cy="0" r="1" gradientUnits="userSpaceOnUse" gradientTransform="translate(256 266.725) rotate(90) scale(217.545 228)">
<stop stop-color="white" stop-opacity="0"/>
<stop offset="1" stop-color="white"/>
</radialGradient>
<clipPath id="clip0_232_2">
<rect width="512" height="512" fill="white"/>
</clipPath>
</defs>
</svg>
