<?xml version="1.0" standalone="no"?>
<!DOCTYPE svg PUBLIC "-//W3C//DTD SVG 20010904//EN"
 "http://www.w3.org/TR/2001/REC-SVG-20010904/DTD/svg10.dtd">
<svg version="1.0" xmlns="http://www.w3.org/2000/svg"
 width="512.000000pt" height="512.000000pt" viewBox="0 0 512.000000 512.000000"
 preserveAspectRatio="xMidYMid meet">
<metadata>
Created by potrace 1.14, written by Peter Selinger 2001-2017
</metadata>
<g transform="translate(0.000000,512.000000) scale(0.100000,-0.100000)"
fill="#000000" stroke="none">
<path d="M2320 5110 c-406 -39 -821 -184 -1154 -404 -642 -422 -1046 -1069
-1148 -1836 -16 -123 -16 -509 0 -625 65 -459 233 -873 501 -1230 92 -122 304
-341 426 -440 368 -299 822 -493 1305 -557 123 -16 509 -16 625 0 459 65 873
233 1230 501 122 92 341 304 440 426 299 368 493 822 557 1305 16 123 16 509
0 625 -69 486 -254 922 -551 1294 -406 507 -1012 845 -1671 931 -115 15 -443
21 -560 10z m0 -1004 c0 -2 -22 -18 -48 -35 -111 -71 -220 -210 -257 -328 -38
-118 -17 -277 43 -323 27 -22 91 -27 123 -10 19 11 19 -1 19 -763 l0 -773 29
-46 c18 -28 48 -57 78 -75 40 -24 59 -28 119 -28 64 0 79 4 165 47 52 26 120
68 152 93 l57 45 0 630 c0 428 -4 646 -11 682 -17 80 -64 165 -126 226 l-55
55 91 -5 c76 -5 102 -11 157 -38 l65 -32 45 51 c63 70 212 194 312 259 92 60
234 128 332 160 65 22 226 62 245 62 6 0 -30 -42 -80 -93 -158 -163 -273 -349
-327 -527 -21 -73 -22 -90 -25 -560 -2 -267 0 -579 4 -694 l8 -209 28 -21 c23
-17 43 -21 100 -21 61 1 82 6 133 32 74 38 178 120 297 233 99 94 98 95 45
-60 -40 -113 -127 -283 -195 -378 -147 -205 -356 -388 -561 -491 -76 -38 -56
-50 -209 125 l-108 124 -216 -216 -216 -216 -105 11 c-415 42 -784 229 -1044
531 -40 46 -72 85 -70 87 1 2 36 -2 77 -8 95 -14 144 0 173 51 21 34 21 48 21
660 0 614 0 626 -21 665 -28 54 -87 94 -149 101 -71 8 -144 -31 -206 -109 -51
-64 -141 -232 -184 -345 -16 -39 -30 -71 -32 -69 -8 8 18 245 36 326 118 539
508 976 1026 1150 66 22 152 47 190 55 39 8 71 15 73 15 1 1 2 -1 2 -3z"/>
</g>
</svg>
