<?xml version="1.0" standalone="no"?>
<!DOCTYPE svg PUBLIC "-//W3C//DTD SVG 20010904//EN"
 "http://www.w3.org/TR/2001/REC-SVG-20010904/DTD/svg10.dtd">
<svg version="1.0" xmlns="http://www.w3.org/2000/svg"
 width="700.000000pt" height="700.000000pt" viewBox="0 0 700.000000 700.000000"
 preserveAspectRatio="xMidYMid meet">
<metadata>
Created by potrace 1.14, written by Peter Selinger 2001-2017
</metadata>
<g transform="translate(0.000000,700.000000) scale(0.100000,-0.100000)"
fill="#000000" stroke="none">
<path d="M2270 6080 c0 -5 5 -10 11 -10 5 0 7 5 4 10 -3 6 -8 10 -11 10 -2 0
-4 -4 -4 -10z"/>
<path d="M2980 5574 c-208 -53 -439 -149 -590 -246 -30 -20 -58 -36 -63 -36
-4 -1 -20 -13 -35 -27 -15 -14 -30 -25 -34 -25 -4 0 -16 -6 -25 -14 -208 -170
-254 -212 -342 -317 -30 -35 -60 -68 -65 -74 -6 -5 -22 -27 -36 -47 -14 -21
-28 -38 -32 -38 -5 0 -8 -4 -8 -9 0 -4 -22 -42 -49 -82 -55 -83 -136 -235
-170 -319 -12 -30 -26 -64 -31 -75 -21 -43 -79 -242 -95 -320 -28 -142 -31
-162 -40 -320 -4 -60 -9 -113 -12 -117 -2 -5 0 -8 4 -8 7 0 36 62 38 80 1 15
91 215 97 218 5 2 8 10 8 17 0 15 68 139 111 201 37 54 128 154 141 154 5 0
16 7 24 15 23 22 93 37 154 33 104 -7 181 -66 220 -166 19 -51 20 -73 19 -885
-1 -852 -1 -861 -39 -913 -42 -58 -142 -75 -269 -48 -36 7 -66 12 -68 11 -7
-8 111 -144 211 -242 123 -122 270 -238 388 -307 43 -25 74 -49 70 -53 -4 -5
-2 -5 5 -1 6 3 33 -6 60 -20 72 -40 206 -98 278 -120 187 -57 328 -90 438
-101 34 -3 68 -10 75 -16 7 -5 12 -6 12 0 0 5 15 8 33 7 119 -10 77 -40 399
284 l291 291 41 -47 c23 -25 52 -59 66 -73 14 -15 44 -49 67 -76 23 -26 58
-66 78 -88 21 -22 46 -51 56 -64 24 -30 56 -34 90 -10 14 10 29 16 33 12 3 -3
6 -1 6 5 0 7 4 12 9 12 17 0 185 104 266 164 332 247 580 569 728 942 32 82
89 265 84 271 -2 1 -50 -45 -107 -102 -58 -57 -143 -135 -189 -172 -46 -37
-89 -73 -95 -79 -7 -6 -48 -32 -91 -57 -95 -55 -189 -82 -258 -74 -64 8 -147
53 -148 81 -9 280 -15 1781 -7 1816 3 14 9 43 13 65 26 146 86 296 183 463 20
34 40 62 44 62 4 0 8 5 8 10 0 24 120 171 133 163 6 -3 7 -1 3 5 -8 14 70 100
198 220 20 17 32 32 28 32 -4 0 -56 -12 -117 -26 -60 -14 -121 -27 -134 -30
-13 -3 -32 -9 -43 -15 -10 -5 -18 -8 -18 -5 0 4 -129 -43 -175 -63 -116 -53
-209 -99 -253 -127 -29 -19 -55 -34 -57 -34 -10 0 -150 -104 -230 -171 -45
-36 -125 -111 -179 -166 l-99 -100 -34 23 c-38 26 -125 60 -175 70 -18 3 -75
7 -127 9 l-94 3 33 -26 c116 -91 204 -237 225 -373 4 -24 7 -435 7 -914 l0
-869 -33 -29 c-58 -48 -170 -120 -249 -159 -141 -70 -267 -82 -362 -34 -66 32
-94 58 -134 118 l-32 48 0 1056 c0 580 -2 1057 -4 1060 -3 2 -20 -2 -39 -10
-67 -27 -154 -1 -190 57 -50 81 -66 254 -35 370 50 184 195 376 369 488 61 39
61 40 27 37 -19 -1 -91 -16 -160 -34z"/>
<path d="M5633 5445 c0 -8 4 -12 9 -9 5 3 6 10 3 15 -9 13 -12 11 -12 -6z"/>
<path d="M5956 5033 c-6 -14 -5 -15 5 -6 7 7 10 15 7 18 -3 3 -9 -2 -12 -12z"/>
<path d="M1227 4999 c7 -7 15 -10 18 -7 3 3 -2 9 -12 12 -14 6 -15 5 -6 -5z"/>
<path d="M6036 4958 c3 -5 10 -6 15 -3 13 9 11 12 -6 12 -8 0 -12 -4 -9 -9z"/>
<path d="M6436 3833 c-6 -14 -5 -15 5 -6 7 7 10 15 7 18 -3 3 -9 -2 -12 -12z"/>
<path d="M4356 802 c-3 -5 1 -9 9 -9 8 0 12 4 9 9 -3 4 -7 8 -9 8 -2 0 -6 -4
-9 -8z"/>
<path d="M2440 640 c-9 -6 -10 -10 -3 -10 6 0 15 5 18 10 8 12 4 12 -15 0z"/>
<path d="M3315 640 c-3 -5 -1 -10 4 -10 6 0 11 5 11 10 0 6 -2 10 -4 10 -3 0
-8 -4 -11 -10z"/>
</g>
</svg>
