<svg xmlns="http://www.w3.org/2000/svg" fill="none" viewBox="0 0 384 262"><g clip-path="url(#a)"><path fill="#000" d="M0 0h384v262H0z"/><mask id="c" width="384" height="262" x="0" y="0" maskUnits="userSpaceOnUse" style="mask-type:alpha"><g fill="#fff" clip-path="url(#b)"><path d="M378 12a2 2 0 1 1 0-4 2 2 0 0 1 0 4Zm-12 0a2 2 0 1 1 0-4 2 2 0 0 1 0 4Zm-12 0a2 2 0 1 1 0-4 2 2 0 0 1 0 4Zm-12 0a2 2 0 1 1 0-4 2 2 0 0 1 0 4Zm-12 0a2 2 0 1 1 0-4 2 2 0 0 1 0 4Zm-12 0a2 2 0 1 1 0-4 2 2 0 0 1 0 4Zm-12 0a2 2 0 1 1 0-4 2 2 0 0 1 0 4Zm-12 0a2 2 0 1 1 0-4 2 2 0 0 1 0 4Zm-12 0a2 2 0 1 1 0-4 2 2 0 0 1 0 4Zm-12 0a2 2 0 1 1 0-4 2 2 0 0 1 0 4Zm-12 0a2 2 0 1 1 0-4 2 2 0 0 1 0 4Zm-12 0a2 2 0 1 1 0-4 2 2 0 0 1 0 4Zm-12 0a2 2 0 1 1 0-4 2 2 0 0 1 0 4Zm-12 0a2 2 0 1 1 0-4 2 2 0 0 1 0 4Zm-12 0a2 2 0 1 1 0-4 2 2 0 0 1 0 4Zm-12 0a2 2 0 1 1 0-4 2 2 0 0 1 0 4Zm-12 0a2 2 0 1 1 0-4 2 2 0 0 1 0 4Zm-12 0a2 2 0 1 1 0-4 2 2 0 0 1 0 4Zm-12 0a2 2 0 1 1 0-4 2 2 0 0 1 0 4Zm-12 0a2 2 0 1 1 0-4 2 2 0 0 1 0 4Zm-12 0a2 2 0 1 1 0-4 2 2 0 0 1 0 4Zm-12 0a2 2 0 1 1 0-4 2 2 0 0 1 0 4Zm-12 0a2 2 0 1 1 0-4 2 2 0 0 1 0 4Zm-12 0a2 2 0 1 1 0-4 2 2 0 0 1 0 4Zm-12 0a2 2 0 1 1 0-4 2 2 0 0 1 0 4Zm-12 0a2 2 0 1 1 0-4 2 2 0 0 1 0 4Zm-12 0a2 2 0 1 1 0-4 2 2 0 0 1 0 4Zm-12 0a2 2 0 1 1 0-4 2 2 0 0 1 0 4Zm-12 0a2 2 0 1 1 0-4 2 2 0 0 1 0 4Zm-12 0a2 2 0 1 1 0-4 2 2 0 0 1 0 4Zm-12 0a2 2 0 1 1 0-4 2 2 0 0 1 0 4ZM6 12a2 2 0 1 1 0-4 2 2 0 0 1 0 4Zm372 12a2 2 0 1 1 0-4 2 2 0 0 1 0 4Zm-12 0a2 2 0 1 1 0-4 2 2 0 0 1 0 4Zm-12 0a2 2 0 1 1 0-4 2 2 0 0 1 0 4Zm-12 0a2 2 0 1 1 0-4 2 2 0 0 1 0 4Zm-12 0a2 2 0 1 1 0-4 2 2 0 0 1 0 4Zm-12 0a2 2 0 1 1 0-4 2 2 0 0 1 0 4Zm-12 0a2 2 0 1 1 0-4 2 2 0 0 1 0 4Zm-12 0a2 2 0 1 1 0-4 2 2 0 0 1 0 4Zm-12 0a2 2 0 1 1 0-4 2 2 0 0 1 0 4Zm-12 0a2 2 0 1 1 0-4 2 2 0 0 1 0 4Zm-12 0a2 2 0 1 1 0-4 2 2 0 0 1 0 4Zm-12 0a2 2 0 1 1 0-4 2 2 0 0 1 0 4Zm-12 0a2 2 0 1 1 0-4 2 2 0 0 1 0 4Zm-12 0a2 2 0 1 1 0-4 2 2 0 0 1 0 4Zm-12 0a2 2 0 1 1 0-4 2 2 0 0 1 0 4Zm-12 0a2 2 0 1 1 0-4 2 2 0 0 1 0 4Zm-12 0a2 2 0 1 1 0-4 2 2 0 0 1 0 4Zm-12 0a2 2 0 1 1 0-4 2 2 0 0 1 0 4Zm-12 0a2 2 0 1 1 0-4 2 2 0 0 1 0 4Zm-12 0a2 2 0 1 1 0-4 2 2 0 0 1 0 4Zm-12 0a2 2 0 1 1 0-4 2 2 0 0 1 0 4Zm-12 0a2 2 0 1 1 0-4 2 2 0 0 1 0 4Zm-12 0a2 2 0 1 1 0-4 2 2 0 0 1 0 4Zm-12 0a2 2 0 1 1 0-4 2 2 0 0 1 0 4Zm-12 0a2 2 0 1 1 0-4 2 2 0 0 1 0 4Zm-12 0a2 2 0 1 1 0-4 2 2 0 0 1 0 4Zm-12 0a2 2 0 1 1 0-4 2 2 0 0 1 0 4Zm-12 0a2 2 0 1 1 0-4 2 2 0 0 1 0 4Zm-12 0a2 2 0 1 1 0-4 2 2 0 0 1 0 4Zm-12 0a2 2 0 1 1 0-4 2 2 0 0 1 0 4Zm-12 0a2 2 0 1 1 0-4 2 2 0 0 1 0 4ZM6 24a2 2 0 1 1 0-4 2 2 0 0 1 0 4Zm372 12a2 2 0 1 1 0-4 2 2 0 0 1 0 4Zm-12 0a2 2 0 1 1 0-4 2 2 0 0 1 0 4Zm-12 0a2 2 0 1 1 0-4 2 2 0 0 1 0 4Zm-12 0a2 2 0 1 1 0-4 2 2 0 0 1 0 4Zm-12 0a2 2 0 1 1 0-4 2 2 0 0 1 0 4Zm-12 0a2 2 0 1 1 0-4 2 2 0 0 1 0 4Zm-12 0a2 2 0 1 1 0-4 2 2 0 0 1 0 4Zm-12 0a2 2 0 1 1 0-4 2 2 0 0 1 0 4Zm-12 0a2 2 0 1 1 0-4 2 2 0 0 1 0 4Zm-12 0a2 2 0 1 1 0-4 2 2 0 0 1 0 4Zm-12 0a2 2 0 1 1 0-4 2 2 0 0 1 0 4Zm-12 0a2 2 0 1 1 0-4 2 2 0 0 1 0 4Zm-12 0a2 2 0 1 1 0-4 2 2 0 0 1 0 4Zm-12 0a2 2 0 1 1 0-4 2 2 0 0 1 0 4Zm-12 0a2 2 0 1 1 0-4 2 2 0 0 1 0 4Zm-12 0a2 2 0 1 1 0-4 2 2 0 0 1 0 4Zm-12 0a2 2 0 1 1 0-4 2 2 0 0 1 0 4Zm-12 0a2 2 0 1 1 0-4 2 2 0 0 1 0 4Zm-12 0a2 2 0 1 1 0-4 2 2 0 0 1 0 4Zm-12 0a2 2 0 1 1 0-4 2 2 0 0 1 0 4Zm-12 0a2 2 0 1 1 0-4 2 2 0 0 1 0 4Zm-12 0a2 2 0 1 1 0-4 2 2 0 0 1 0 4Zm-12 0a2 2 0 1 1 0-4 2 2 0 0 1 0 4Zm-12 0a2 2 0 1 1 0-4 2 2 0 0 1 0 4Zm-12 0a2 2 0 1 1 0-4 2 2 0 0 1 0 4Zm-12 0a2 2 0 1 1 0-4 2 2 0 0 1 0 4Zm-12 0a2 2 0 1 1 0-4 2 2 0 0 1 0 4Zm-12 0a2 2 0 1 1 0-4 2 2 0 0 1 0 4Zm-12 0a2 2 0 1 1 0-4 2 2 0 0 1 0 4Zm-12 0a2 2 0 1 1 0-4 2 2 0 0 1 0 4Zm-12 0a2 2 0 1 1 0-4 2 2 0 0 1 0 4ZM6 36a2 2 0 1 1 0-4 2 2 0 0 1 0 4Zm372 12a2 2 0 1 1 0-4 2 2 0 0 1 0 4Zm-12 0a2 2 0 1 1 0-4 2 2 0 0 1 0 4Zm-12 0a2 2 0 1 1 0-4 2 2 0 0 1 0 4Zm-12 0a2 2 0 1 1 0-4 2 2 0 0 1 0 4Zm-12 0a2 2 0 1 1 0-4 2 2 0 0 1 0 4Zm-12 0a2 2 0 1 1 0-4 2 2 0 0 1 0 4Zm-12 0a2 2 0 1 1 0-4 2 2 0 0 1 0 4Zm-12 0a2 2 0 1 1 0-4 2 2 0 0 1 0 4Zm-12 0a2 2 0 1 1 0-4 2 2 0 0 1 0 4Zm-12 0a2 2 0 1 1 0-4 2 2 0 0 1 0 4Zm-12 0a2 2 0 1 1 0-4 2 2 0 0 1 0 4Zm-12 0a2 2 0 1 1 0-4 2 2 0 0 1 0 4Zm-12 0a2 2 0 1 1 0-4 2 2 0 0 1 0 4Zm-12 0a2 2 0 1 1 0-4 2 2 0 0 1 0 4Zm-12 0a2 2 0 1 1 0-4 2 2 0 0 1 0 4Zm-12 0a2 2 0 1 1 0-4 2 2 0 0 1 0 4Zm-12 0a2 2 0 1 1 0-4 2 2 0 0 1 0 4Zm-12 0a2 2 0 1 1 0-4 2 2 0 0 1 0 4Zm-12 0a2 2 0 1 1 0-4 2 2 0 0 1 0 4Zm-12 0a2 2 0 1 1 0-4 2 2 0 0 1 0 4Zm-12 0a2 2 0 1 1 0-4 2 2 0 0 1 0 4Zm-12 0a2 2 0 1 1 0-4 2 2 0 0 1 0 4Zm-12 0a2 2 0 1 1 0-4 2 2 0 0 1 0 4Zm-12 0a2 2 0 1 1 0-4 2 2 0 0 1 0 4Zm-12 0a2 2 0 1 1 0-4 2 2 0 0 1 0 4Zm-12 0a2 2 0 1 1 0-4 2 2 0 0 1 0 4Zm-12 0a2 2 0 1 1 0-4 2 2 0 0 1 0 4Zm-12 0a2 2 0 1 1 0-4 2 2 0 0 1 0 4Zm-12 0a2 2 0 1 1 0-4 2 2 0 0 1 0 4Zm-12 0a2 2 0 1 1 0-4 2 2 0 0 1 0 4Zm-12 0a2 2 0 1 1 0-4 2 2 0 0 1 0 4ZM6 48a2 2 0 1 1 0-4 2 2 0 0 1 0 4Zm372 12a2 2 0 1 1 0-4 2 2 0 0 1 0 4Zm-12 0a2 2 0 1 1 0-4 2 2 0 0 1 0 4Zm-12 0a2 2 0 1 1 0-4 2 2 0 0 1 0 4Zm-12 0a2 2 0 1 1 0-4 2 2 0 0 1 0 4Zm-12 0a2 2 0 1 1 0-4 2 2 0 0 1 0 4Zm-12 0a2 2 0 1 1 0-4 2 2 0 0 1 0 4Zm-12 0a2 2 0 1 1 0-4 2 2 0 0 1 0 4Zm-12 0a2 2 0 1 1 0-4 2 2 0 0 1 0 4Zm-12 0a2 2 0 1 1 0-4 2 2 0 0 1 0 4Zm-12 0a2 2 0 1 1 0-4 2 2 0 0 1 0 4Zm-12 0a2 2 0 1 1 0-4 2 2 0 0 1 0 4Zm-12 0a2 2 0 1 1 0-4 2 2 0 0 1 0 4Zm-12 0a2 2 0 1 1 0-4 2 2 0 0 1 0 4Zm-12 0a2 2 0 1 1 0-4 2 2 0 0 1 0 4Zm-12 0a2 2 0 1 1 0-4 2 2 0 0 1 0 4Zm-12 0a2 2 0 1 1 0-4 2 2 0 0 1 0 4Zm-12 0a2 2 0 1 1 0-4 2 2 0 0 1 0 4Zm-12 0a2 2 0 1 1 0-4 2 2 0 0 1 0 4Zm-12 0a2 2 0 1 1 0-4 2 2 0 0 1 0 4Zm-12 0a2 2 0 1 1 0-4 2 2 0 0 1 0 4Zm-12 0a2 2 0 1 1 0-4 2 2 0 0 1 0 4Zm-12 0a2 2 0 1 1 0-4 2 2 0 0 1 0 4Zm-12 0a2 2 0 1 1 0-4 2 2 0 0 1 0 4Zm-12 0a2 2 0 1 1 0-4 2 2 0 0 1 0 4Zm-12 0a2 2 0 1 1 0-4 2 2 0 0 1 0 4Zm-12 0a2 2 0 1 1 0-4 2 2 0 0 1 0 4Zm-12 0a2 2 0 1 1 0-4 2 2 0 0 1 0 4Zm-12 0a2 2 0 1 1 0-4 2 2 0 0 1 0 4Zm-12 0a2 2 0 1 1 0-4 2 2 0 0 1 0 4Zm-12 0a2 2 0 1 1 0-4 2 2 0 0 1 0 4Zm-12 0a2 2 0 1 1 0-4 2 2 0 0 1 0 4ZM6 60a2 2 0 1 1 0-4 2 2 0 0 1 0 4Zm372 12a2 2 0 1 1 0-4 2 2 0 0 1 0 4Zm-12 0a2 2 0 1 1 0-4 2 2 0 0 1 0 4Zm-12 0a2 2 0 1 1 0-4 2 2 0 0 1 0 4Zm-12 0a2 2 0 1 1 0-4 2 2 0 0 1 0 4Zm-12 0a2 2 0 1 1 0-4 2 2 0 0 1 0 4Zm-12 0a2 2 0 1 1 0-4 2 2 0 0 1 0 4Zm-12 0a2 2 0 1 1 0-4 2 2 0 0 1 0 4Zm-12 0a2 2 0 1 1 0-4 2 2 0 0 1 0 4Zm-12 0a2 2 0 1 1 0-4 2 2 0 0 1 0 4Zm-12 0a2 2 0 1 1 0-4 2 2 0 0 1 0 4Zm-12 0a2 2 0 1 1 0-4 2 2 0 0 1 0 4Zm-12 0a2 2 0 1 1 0-4 2 2 0 0 1 0 4Zm-12 0a2 2 0 1 1 0-4 2 2 0 0 1 0 4Zm-12 0a2 2 0 1 1 0-4 2 2 0 0 1 0 4Zm-12 0a2 2 0 1 1 0-4 2 2 0 0 1 0 4Zm-12 0a2 2 0 1 1 0-4 2 2 0 0 1 0 4Zm-12 0a2 2 0 1 1 0-4 2 2 0 0 1 0 4Zm-12 0a2 2 0 1 1 0-4 2 2 0 0 1 0 4Zm-12 0a2 2 0 1 1 0-4 2 2 0 0 1 0 4Zm-12 0a2 2 0 1 1 0-4 2 2 0 0 1 0 4Zm-12 0a2 2 0 1 1 0-4 2 2 0 0 1 0 4Zm-12 0a2 2 0 1 1 0-4 2 2 0 0 1 0 4Zm-12 0a2 2 0 1 1 0-4 2 2 0 0 1 0 4Zm-12 0a2 2 0 1 1 0-4 2 2 0 0 1 0 4Zm-12 0a2 2 0 1 1 0-4 2 2 0 0 1 0 4Zm-12 0a2 2 0 1 1 0-4 2 2 0 0 1 0 4Zm-12 0a2 2 0 1 1 0-4 2 2 0 0 1 0 4Zm-12 0a2 2 0 1 1 0-4 2 2 0 0 1 0 4Zm-12 0a2 2 0 1 1 0-4 2 2 0 0 1 0 4Zm-12 0a2 2 0 1 1 0-4 2 2 0 0 1 0 4Zm-12 0a2 2 0 1 1 0-4 2 2 0 0 1 0 4ZM6 72a2 2 0 1 1 0-4 2 2 0 0 1 0 4Zm372 12a2 2 0 1 1 0-4 2 2 0 0 1 0 4Zm-12 0a2 2 0 1 1 0-4 2 2 0 0 1 0 4Zm-12 0a2 2 0 1 1 0-4 2 2 0 0 1 0 4Zm-12 0a2 2 0 1 1 0-4 2 2 0 0 1 0 4Zm-12 0a2 2 0 1 1 0-4 2 2 0 0 1 0 4Zm-12 0a2 2 0 1 1 0-4 2 2 0 0 1 0 4Zm-12 0a2 2 0 1 1 0-4 2 2 0 0 1 0 4Zm-12 0a2 2 0 1 1 0-4 2 2 0 0 1 0 4Zm-12 0a2 2 0 1 1 0-4 2 2 0 0 1 0 4Zm-12 0a2 2 0 1 1 0-4 2 2 0 0 1 0 4Zm-12 0a2 2 0 1 1 0-4 2 2 0 0 1 0 4Zm-12 0a2 2 0 1 1 0-4 2 2 0 0 1 0 4Zm-12 0a2 2 0 1 1 0-4 2 2 0 0 1 0 4Zm-12 0a2 2 0 1 1 0-4 2 2 0 0 1 0 4Zm-12 0a2 2 0 1 1 0-4 2 2 0 0 1 0 4Zm-12 0a2 2 0 1 1 0-4 2 2 0 0 1 0 4Zm-12 0a2 2 0 1 1 0-4 2 2 0 0 1 0 4Zm-12 0a2 2 0 1 1 0-4 2 2 0 0 1 0 4Zm-12 0a2 2 0 1 1 0-4 2 2 0 0 1 0 4Zm-12 0a2 2 0 1 1 0-4 2 2 0 0 1 0 4Zm-12 0a2 2 0 1 1 0-4 2 2 0 0 1 0 4Zm-12 0a2 2 0 1 1 0-4 2 2 0 0 1 0 4Zm-12 0a2 2 0 1 1 0-4 2 2 0 0 1 0 4Zm-12 0a2 2 0 1 1 0-4 2 2 0 0 1 0 4Zm-12 0a2 2 0 1 1 0-4 2 2 0 0 1 0 4Zm-12 0a2 2 0 1 1 0-4 2 2 0 0 1 0 4Zm-12 0a2 2 0 1 1 0-4 2 2 0 0 1 0 4Zm-12 0a2 2 0 1 1 0-4 2 2 0 0 1 0 4Zm-12 0a2 2 0 1 1 0-4 2 2 0 0 1 0 4Zm-12 0a2 2 0 1 1 0-4 2 2 0 0 1 0 4Zm-12 0a2 2 0 1 1 0-4 2 2 0 0 1 0 4ZM6 84a2 2 0 1 1 0-4 2 2 0 0 1 0 4Z"/><path d="M378 96a2 2 0 1 1 0-4 2 2 0 0 1 0 4Zm-12 0a2 2 0 1 1 0-4 2 2 0 0 1 0 4Zm-12 0a2 2 0 1 1 0-4 2 2 0 0 1 0 4Zm-12 0a2 2 0 1 1 0-4 2 2 0 0 1 0 4Zm-12 0a2 2 0 1 1 0-4 2 2 0 0 1 0 4Zm-12 0a2 2 0 1 1 0-4 2 2 0 0 1 0 4Zm-12 0a2 2 0 1 1 0-4 2 2 0 0 1 0 4Zm-12 0a2 2 0 1 1 0-4 2 2 0 0 1 0 4Zm-12 0a2 2 0 1 1 0-4 2 2 0 0 1 0 4Zm-12 0a2 2 0 1 1 0-4 2 2 0 0 1 0 4Zm-12 0a2 2 0 1 1 0-4 2 2 0 0 1 0 4Zm-12 0a2 2 0 1 1 0-4 2 2 0 0 1 0 4Zm-12 0a2 2 0 1 1 0-4 2 2 0 0 1 0 4Zm-12 0a2 2 0 1 1 0-4 2 2 0 0 1 0 4Zm-12 0a2 2 0 1 1 0-4 2 2 0 0 1 0 4Zm-12 0a2 2 0 1 1 0-4 2 2 0 0 1 0 4Zm-12 0a2 2 0 1 1 0-4 2 2 0 0 1 0 4Zm-12 0a2 2 0 1 1 0-4 2 2 0 0 1 0 4Zm-12 0a2 2 0 1 1 0-4 2 2 0 0 1 0 4Zm-12 0a2 2 0 1 1 0-4 2 2 0 0 1 0 4Zm-12 0a2 2 0 1 1 0-4 2 2 0 0 1 0 4Zm-12 0a2 2 0 1 1 0-4 2 2 0 0 1 0 4Zm-12 0a2 2 0 1 1 0-4 2 2 0 0 1 0 4Zm-12 0a2 2 0 1 1 0-4 2 2 0 0 1 0 4Zm-12 0a2 2 0 1 1 0-4 2 2 0 0 1 0 4Zm-12 0a2 2 0 1 1 0-4 2 2 0 0 1 0 4Zm-12 0a2 2 0 1 1 0-4 2 2 0 0 1 0 4Zm-12 0a2 2 0 1 1 0-4 2 2 0 0 1 0 4Zm-12 0a2 2 0 1 1 0-4 2 2 0 0 1 0 4Zm-12 0a2 2 0 1 1 0-4 2 2 0 0 1 0 4Zm-12 0a2 2 0 1 1 0-4 2 2 0 0 1 0 4ZM6 96a2 2 0 1 1 0-4 2 2 0 0 1 0 4Z" opacity=".9"/><path d="M378 108a2 2 0 1 1-.001-3.999A2 2 0 0 1 378 108Zm-12 0a2 2 0 1 1-.001-3.999A2 2 0 0 1 366 108Zm-12 0a2 2 0 1 1-.001-3.999A2 2 0 0 1 354 108Zm-12 0a2 2 0 1 1-.001-3.999A2 2 0 0 1 342 108Zm-12 0a2 2 0 1 1-.001-3.999A2 2 0 0 1 330 108Zm-12 0a2 2 0 1 1-.001-3.999A2 2 0 0 1 318 108Zm-12 0a2 2 0 1 1-.001-3.999A2 2 0 0 1 306 108Zm-12 0a2 2 0 1 1-.001-3.999A2 2 0 0 1 294 108Zm-12 0a2 2 0 1 1-.001-3.999A2 2 0 0 1 282 108Zm-12 0a2 2 0 1 1-.001-3.999A2 2 0 0 1 270 108Zm-12 0a2 2 0 1 1-.001-3.999A2 2 0 0 1 258 108Zm-12 0a2 2 0 1 1-.001-3.999A2 2 0 0 1 246 108Zm-12 0a2 2 0 1 1-.001-3.999A2 2 0 0 1 234 108Zm-12 0a2 2 0 1 1-.001-3.999A2 2 0 0 1 222 108Zm-12 0a2 2 0 1 1-.001-3.999A2 2 0 0 1 210 108Zm-12 0a2 2 0 1 1-.001-3.999A2 2 0 0 1 198 108Zm-12 0a2 2 0 1 1-.001-3.999A2 2 0 0 1 186 108Zm-12 0a2 2 0 1 1-.001-3.999A2 2 0 0 1 174 108Zm-12 0a2 2 0 1 1-.001-3.999A2 2 0 0 1 162 108Zm-12 0a2 2 0 1 1-.001-3.999A2 2 0 0 1 150 108Zm-12 0a2 2 0 1 1-.001-3.999A2 2 0 0 1 138 108Zm-12 0a2 2 0 1 1-.001-3.999A2 2 0 0 1 126 108Zm-12 0a2 2 0 1 1-.001-3.999A2 2 0 0 1 114 108Zm-12 0a2 2 0 1 1-.001-3.999A2 2 0 0 1 102 108Zm-12 0a2 2 0 1 1 0-4 2 2 0 0 1 0 4Zm-12 0a2 2 0 1 1 0-4 2 2 0 0 1 0 4Zm-12 0a2 2 0 1 1 0-4 2 2 0 0 1 0 4Zm-12 0a2 2 0 1 1 0-4 2 2 0 0 1 0 4Zm-12 0a2 2 0 1 1 0-4 2 2 0 0 1 0 4Zm-12 0a2 2 0 1 1 0-4 2 2 0 0 1 0 4Zm-12 0a2 2 0 1 1 0-4 2 2 0 0 1 0 4Zm-12 0a2 2 0 1 1 0-4 2 2 0 0 1 0 4Z" opacity=".8"/><path d="M378 120a2 2 0 1 1-.001-3.999A2 2 0 0 1 378 120Zm-12 0a2 2 0 1 1-.001-3.999A2 2 0 0 1 366 120Zm-12 0a2 2 0 1 1-.001-3.999A2 2 0 0 1 354 120Zm-12 0a2 2 0 1 1-.001-3.999A2 2 0 0 1 342 120Zm-12 0a2 2 0 1 1-.001-3.999A2 2 0 0 1 330 120Zm-12 0a2 2 0 1 1-.001-3.999A2 2 0 0 1 318 120Zm-12 0a2 2 0 1 1-.001-3.999A2 2 0 0 1 306 120Zm-12 0a2 2 0 1 1-.001-3.999A2 2 0 0 1 294 120Zm-12 0a2 2 0 1 1-.001-3.999A2 2 0 0 1 282 120Zm-12 0a2 2 0 1 1-.001-3.999A2 2 0 0 1 270 120Zm-12 0a2 2 0 1 1-.001-3.999A2 2 0 0 1 258 120Zm-12 0a2 2 0 1 1-.001-3.999A2 2 0 0 1 246 120Zm-12 0a2 2 0 1 1-.001-3.999A2 2 0 0 1 234 120Zm-12 0a2 2 0 1 1-.001-3.999A2 2 0 0 1 222 120Zm-12 0a2 2 0 1 1-.001-3.999A2 2 0 0 1 210 120Zm-12 0a2 2 0 1 1-.001-3.999A2 2 0 0 1 198 120Zm-12 0a2 2 0 1 1-.001-3.999A2 2 0 0 1 186 120Zm-12 0a2 2 0 1 1-.001-3.999A2 2 0 0 1 174 120Zm-12 0a2 2 0 1 1-.001-3.999A2 2 0 0 1 162 120Zm-12 0a2 2 0 1 1-.001-3.999A2 2 0 0 1 150 120Zm-12 0a2 2 0 1 1-.001-3.999A2 2 0 0 1 138 120Zm-12 0a2 2 0 1 1-.001-3.999A2 2 0 0 1 126 120Zm-12 0a2 2 0 1 1-.001-3.999A2 2 0 0 1 114 120Zm-12 0a2 2 0 1 1-.001-3.999A2 2 0 0 1 102 120Zm-12 0a2 2 0 1 1 0-4 2 2 0 0 1 0 4Zm-12 0a2 2 0 1 1 0-4 2 2 0 0 1 0 4Zm-12 0a2 2 0 1 1 0-4 2 2 0 0 1 0 4Zm-12 0a2 2 0 1 1 0-4 2 2 0 0 1 0 4Zm-12 0a2 2 0 1 1 0-4 2 2 0 0 1 0 4Zm-12 0a2 2 0 1 1 0-4 2 2 0 0 1 0 4Zm-12 0a2 2 0 1 1 0-4 2 2 0 0 1 0 4Zm-12 0a2 2 0 1 1 0-4 2 2 0 0 1 0 4Z" opacity=".7"/><path d="M378 132a2 2 0 1 1-.001-3.999A2 2 0 0 1 378 132Zm-12 0a2 2 0 1 1-.001-3.999A2 2 0 0 1 366 132Zm-12 0a2 2 0 1 1-.001-3.999A2 2 0 0 1 354 132Zm-12 0a2 2 0 1 1-.001-3.999A2 2 0 0 1 342 132Zm-12 0a2 2 0 1 1-.001-3.999A2 2 0 0 1 330 132Zm-12 0a2 2 0 1 1-.001-3.999A2 2 0 0 1 318 132Zm-12 0a2 2 0 1 1-.001-3.999A2 2 0 0 1 306 132Zm-12 0a2 2 0 1 1-.001-3.999A2 2 0 0 1 294 132Zm-12 0a2 2 0 1 1-.001-3.999A2 2 0 0 1 282 132Zm-12 0a2 2 0 1 1-.001-3.999A2 2 0 0 1 270 132Zm-12 0a2 2 0 1 1-.001-3.999A2 2 0 0 1 258 132Zm-12 0a2 2 0 1 1-.001-3.999A2 2 0 0 1 246 132Zm-12 0a2 2 0 1 1-.001-3.999A2 2 0 0 1 234 132Zm-12 0a2 2 0 1 1-.001-3.999A2 2 0 0 1 222 132Zm-12 0a2 2 0 1 1-.001-3.999A2 2 0 0 1 210 132Zm-12 0a2 2 0 1 1-.001-3.999A2 2 0 0 1 198 132Zm-12 0a2 2 0 1 1-.001-3.999A2 2 0 0 1 186 132Zm-12 0a2 2 0 1 1-.001-3.999A2 2 0 0 1 174 132Zm-12 0a2 2 0 1 1-.001-3.999A2 2 0 0 1 162 132Zm-12 0a2 2 0 1 1-.001-3.999A2 2 0 0 1 150 132Zm-12 0a2 2 0 1 1-.001-3.999A2 2 0 0 1 138 132Zm-12 0a2 2 0 1 1-.001-3.999A2 2 0 0 1 126 132Zm-12 0a2 2 0 1 1-.001-3.999A2 2 0 0 1 114 132Zm-12 0a2 2 0 1 1-.001-3.999A2 2 0 0 1 102 132Zm-12 0a2 2 0 1 1 0-4 2 2 0 0 1 0 4Zm-12 0a2 2 0 1 1 0-4 2 2 0 0 1 0 4Zm-12 0a2 2 0 1 1 0-4 2 2 0 0 1 0 4Zm-12 0a2 2 0 1 1 0-4 2 2 0 0 1 0 4Zm-12 0a2 2 0 1 1 0-4 2 2 0 0 1 0 4Zm-12 0a2 2 0 1 1 0-4 2 2 0 0 1 0 4Zm-12 0a2 2 0 1 1 0-4 2 2 0 0 1 0 4Zm-12 0a2 2 0 1 1 0-4 2 2 0 0 1 0 4Z" opacity=".6"/><path d="M378 144a2 2 0 1 1-.001-3.999A2 2 0 0 1 378 144Zm-12 0a2 2 0 1 1-.001-3.999A2 2 0 0 1 366 144Zm-12 0a2 2 0 1 1-.001-3.999A2 2 0 0 1 354 144Zm-12 0a2 2 0 1 1-.001-3.999A2 2 0 0 1 342 144Zm-12 0a2 2 0 1 1-.001-3.999A2 2 0 0 1 330 144Zm-12 0a2 2 0 1 1-.001-3.999A2 2 0 0 1 318 144Zm-12 0a2 2 0 1 1-.001-3.999A2 2 0 0 1 306 144Zm-12 0a2 2 0 1 1-.001-3.999A2 2 0 0 1 294 144Zm-12 0a2 2 0 1 1-.001-3.999A2 2 0 0 1 282 144Zm-12 0a2 2 0 1 1-.001-3.999A2 2 0 0 1 270 144Zm-12 0a2 2 0 1 1-.001-3.999A2 2 0 0 1 258 144Zm-12 0a2 2 0 1 1-.001-3.999A2 2 0 0 1 246 144Zm-12 0a2 2 0 1 1-.001-3.999A2 2 0 0 1 234 144Zm-12 0a2 2 0 1 1-.001-3.999A2 2 0 0 1 222 144Zm-12 0a2 2 0 1 1-.001-3.999A2 2 0 0 1 210 144Zm-12 0a2 2 0 1 1-.001-3.999A2 2 0 0 1 198 144Zm-12 0a2 2 0 1 1-.001-3.999A2 2 0 0 1 186 144Zm-12 0a2 2 0 1 1-.001-3.999A2 2 0 0 1 174 144Zm-12 0a2 2 0 1 1-.001-3.999A2 2 0 0 1 162 144Zm-12 0a2 2 0 1 1-.001-3.999A2 2 0 0 1 150 144Zm-12 0a2 2 0 1 1-.001-3.999A2 2 0 0 1 138 144Zm-12 0a2 2 0 1 1-.001-3.999A2 2 0 0 1 126 144Zm-12 0a2 2 0 1 1-.001-3.999A2 2 0 0 1 114 144Zm-12 0a2 2 0 1 1-.001-3.999A2 2 0 0 1 102 144Zm-12 0a2 2 0 1 1 0-4 2 2 0 0 1 0 4Zm-12 0a2 2 0 1 1 0-4 2 2 0 0 1 0 4Zm-12 0a2 2 0 1 1 0-4 2 2 0 0 1 0 4Zm-12 0a2 2 0 1 1 0-4 2 2 0 0 1 0 4Zm-12 0a2 2 0 1 1 0-4 2 2 0 0 1 0 4Zm-12 0a2 2 0 1 1 0-4 2 2 0 0 1 0 4Zm-12 0a2 2 0 1 1 0-4 2 2 0 0 1 0 4Zm-12 0a2 2 0 1 1 0-4 2 2 0 0 1 0 4Z" opacity=".5"/><path d="M378 156a2 2 0 1 1-.001-3.999A2 2 0 0 1 378 156Zm-12 0a2 2 0 1 1-.001-3.999A2 2 0 0 1 366 156Zm-12 0a2 2 0 1 1-.001-3.999A2 2 0 0 1 354 156Zm-12 0a2 2 0 1 1-.001-3.999A2 2 0 0 1 342 156Zm-12 0a2 2 0 1 1-.001-3.999A2 2 0 0 1 330 156Zm-12 0a2 2 0 1 1-.001-3.999A2 2 0 0 1 318 156Zm-12 0a2 2 0 1 1-.001-3.999A2 2 0 0 1 306 156Zm-12 0a2 2 0 1 1-.001-3.999A2 2 0 0 1 294 156Zm-12 0a2 2 0 1 1-.001-3.999A2 2 0 0 1 282 156Zm-12 0a2 2 0 1 1-.001-3.999A2 2 0 0 1 270 156Zm-12 0a2 2 0 1 1-.001-3.999A2 2 0 0 1 258 156Zm-12 0a2 2 0 1 1-.001-3.999A2 2 0 0 1 246 156Zm-12 0a2 2 0 1 1-.001-3.999A2 2 0 0 1 234 156Zm-12 0a2 2 0 1 1-.001-3.999A2 2 0 0 1 222 156Zm-12 0a2 2 0 1 1-.001-3.999A2 2 0 0 1 210 156Zm-12 0a2 2 0 1 1-.001-3.999A2 2 0 0 1 198 156Zm-12 0a2 2 0 1 1-.001-3.999A2 2 0 0 1 186 156Zm-12 0a2 2 0 1 1-.001-3.999A2 2 0 0 1 174 156Zm-12 0a2 2 0 1 1-.001-3.999A2 2 0 0 1 162 156Zm-12 0a2 2 0 1 1-.001-3.999A2 2 0 0 1 150 156Zm-12 0a2 2 0 1 1-.001-3.999A2 2 0 0 1 138 156Zm-12 0a2 2 0 1 1-.001-3.999A2 2 0 0 1 126 156Zm-12 0a2 2 0 1 1-.001-3.999A2 2 0 0 1 114 156Zm-12 0a2 2 0 1 1-.001-3.999A2 2 0 0 1 102 156Zm-12 0a2 2 0 1 1 0-4 2 2 0 0 1 0 4Zm-12 0a2 2 0 1 1 0-4 2 2 0 0 1 0 4Zm-12 0a2 2 0 1 1 0-4 2 2 0 0 1 0 4Zm-12 0a2 2 0 1 1 0-4 2 2 0 0 1 0 4Zm-12 0a2 2 0 1 1 0-4 2 2 0 0 1 0 4Zm-12 0a2 2 0 1 1 0-4 2 2 0 0 1 0 4Zm-12 0a2 2 0 1 1 0-4 2 2 0 0 1 0 4Zm-12 0a2 2 0 1 1 0-4 2 2 0 0 1 0 4Z" opacity=".4"/><path d="M378 168a2 2 0 1 1-.001-3.999A2 2 0 0 1 378 168Zm-12 0a2 2 0 1 1-.001-3.999A2 2 0 0 1 366 168Zm-12 0a2 2 0 1 1-.001-3.999A2 2 0 0 1 354 168Zm-12 0a2 2 0 1 1-.001-3.999A2 2 0 0 1 342 168Zm-12 0a2 2 0 1 1-.001-3.999A2 2 0 0 1 330 168Zm-12 0a2 2 0 1 1-.001-3.999A2 2 0 0 1 318 168Zm-12 0a2 2 0 1 1-.001-3.999A2 2 0 0 1 306 168Zm-12 0a2 2 0 1 1-.001-3.999A2 2 0 0 1 294 168Zm-12 0a2 2 0 1 1-.001-3.999A2 2 0 0 1 282 168Zm-12 0a2 2 0 1 1-.001-3.999A2 2 0 0 1 270 168Zm-12 0a2 2 0 1 1-.001-3.999A2 2 0 0 1 258 168Zm-12 0a2 2 0 1 1-.001-3.999A2 2 0 0 1 246 168Zm-12 0a2 2 0 1 1-.001-3.999A2 2 0 0 1 234 168Zm-12 0a2 2 0 1 1-.001-3.999A2 2 0 0 1 222 168Zm-12 0a2 2 0 1 1-.001-3.999A2 2 0 0 1 210 168Zm-12 0a2 2 0 1 1-.001-3.999A2 2 0 0 1 198 168Zm-12 0a2 2 0 1 1-.001-3.999A2 2 0 0 1 186 168Zm-12 0a2 2 0 1 1-.001-3.999A2 2 0 0 1 174 168Zm-12 0a2 2 0 1 1-.001-3.999A2 2 0 0 1 162 168Zm-12 0a2 2 0 1 1-.001-3.999A2 2 0 0 1 150 168Zm-12 0a2 2 0 1 1-.001-3.999A2 2 0 0 1 138 168Zm-12 0a2 2 0 1 1-.001-3.999A2 2 0 0 1 126 168Zm-12 0a2 2 0 1 1-.001-3.999A2 2 0 0 1 114 168Zm-12 0a2 2 0 1 1-.001-3.999A2 2 0 0 1 102 168Zm-12 0a2 2 0 1 1 0-4 2 2 0 0 1 0 4Zm-12 0a2 2 0 1 1 0-4 2 2 0 0 1 0 4Zm-12 0a2 2 0 1 1 0-4 2 2 0 0 1 0 4Zm-12 0a2 2 0 1 1 0-4 2 2 0 0 1 0 4Zm-12 0a2 2 0 1 1 0-4 2 2 0 0 1 0 4Zm-12 0a2 2 0 1 1 0-4 2 2 0 0 1 0 4Zm-12 0a2 2 0 1 1 0-4 2 2 0 0 1 0 4Zm-12 0a2 2 0 1 1 0-4 2 2 0 0 1 0 4Z" opacity=".3"/><path d="M378 180a2 2 0 1 1-.001-3.999A2 2 0 0 1 378 180Zm-12 0a2 2 0 1 1-.001-3.999A2 2 0 0 1 366 180Zm-12 0a2 2 0 1 1-.001-3.999A2 2 0 0 1 354 180Zm-12 0a2 2 0 1 1-.001-3.999A2 2 0 0 1 342 180Zm-12 0a2 2 0 1 1-.001-3.999A2 2 0 0 1 330 180Zm-12 0a2 2 0 1 1-.001-3.999A2 2 0 0 1 318 180Zm-12 0a2 2 0 1 1-.001-3.999A2 2 0 0 1 306 180Zm-12 0a2 2 0 1 1-.001-3.999A2 2 0 0 1 294 180Zm-12 0a2 2 0 1 1-.001-3.999A2 2 0 0 1 282 180Zm-12 0a2 2 0 1 1-.001-3.999A2 2 0 0 1 270 180Zm-12 0a2 2 0 1 1-.001-3.999A2 2 0 0 1 258 180Zm-12 0a2 2 0 1 1-.001-3.999A2 2 0 0 1 246 180Zm-12 0a2 2 0 1 1-.001-3.999A2 2 0 0 1 234 180Zm-12 0a2 2 0 1 1-.001-3.999A2 2 0 0 1 222 180Zm-12 0a2 2 0 1 1-.001-3.999A2 2 0 0 1 210 180Zm-12 0a2 2 0 1 1-.001-3.999A2 2 0 0 1 198 180Zm-12 0a2 2 0 1 1-.001-3.999A2 2 0 0 1 186 180Zm-12 0a2 2 0 1 1-.001-3.999A2 2 0 0 1 174 180Zm-12 0a2 2 0 1 1-.001-3.999A2 2 0 0 1 162 180Zm-12 0a2 2 0 1 1-.001-3.999A2 2 0 0 1 150 180Zm-12 0a2 2 0 1 1-.001-3.999A2 2 0 0 1 138 180Zm-12 0a2 2 0 1 1-.001-3.999A2 2 0 0 1 126 180Zm-12 0a2 2 0 1 1-.001-3.999A2 2 0 0 1 114 180Zm-12 0a2 2 0 1 1-.001-3.999A2 2 0 0 1 102 180Zm-12 0a2 2 0 1 1 0-4 2 2 0 0 1 0 4Zm-12 0a2 2 0 1 1 0-4 2 2 0 0 1 0 4Zm-12 0a2 2 0 1 1 0-4 2 2 0 0 1 0 4Zm-12 0a2 2 0 1 1 0-4 2 2 0 0 1 0 4Zm-12 0a2 2 0 1 1 0-4 2 2 0 0 1 0 4Zm-12 0a2 2 0 1 1 0-4 2 2 0 0 1 0 4Zm-12 0a2 2 0 1 1 0-4 2 2 0 0 1 0 4Zm-12 0a2 2 0 1 1 0-4 2 2 0 0 1 0 4Z" opacity=".2"/><path d="M378 192a2 2 0 1 1-.001-3.999A2 2 0 0 1 378 192Zm-12 0a2 2 0 1 1-.001-3.999A2 2 0 0 1 366 192Zm-12 0a2 2 0 1 1-.001-3.999A2 2 0 0 1 354 192Zm-12 0a2 2 0 1 1-.001-3.999A2 2 0 0 1 342 192Zm-12 0a2 2 0 1 1-.001-3.999A2 2 0 0 1 330 192Zm-12 0a2 2 0 1 1-.001-3.999A2 2 0 0 1 318 192Zm-12 0a2 2 0 1 1-.001-3.999A2 2 0 0 1 306 192Zm-12 0a2 2 0 1 1-.001-3.999A2 2 0 0 1 294 192Zm-12 0a2 2 0 1 1-.001-3.999A2 2 0 0 1 282 192Zm-12 0a2 2 0 1 1-.001-3.999A2 2 0 0 1 270 192Zm-12 0a2 2 0 1 1-.001-3.999A2 2 0 0 1 258 192Zm-12 0a2 2 0 1 1-.001-3.999A2 2 0 0 1 246 192Zm-12 0a2 2 0 1 1-.001-3.999A2 2 0 0 1 234 192Zm-12 0a2 2 0 1 1-.001-3.999A2 2 0 0 1 222 192Zm-12 0a2 2 0 1 1-.001-3.999A2 2 0 0 1 210 192Zm-12 0a2 2 0 1 1-.001-3.999A2 2 0 0 1 198 192Zm-12 0a2 2 0 1 1-.001-3.999A2 2 0 0 1 186 192Zm-12 0a2 2 0 1 1-.001-3.999A2 2 0 0 1 174 192Zm-12 0a2 2 0 1 1-.001-3.999A2 2 0 0 1 162 192Zm-12 0a2 2 0 1 1-.001-3.999A2 2 0 0 1 150 192Zm-12 0a2 2 0 1 1-.001-3.999A2 2 0 0 1 138 192Zm-12 0a2 2 0 1 1-.001-3.999A2 2 0 0 1 126 192Zm-12 0a2 2 0 1 1-.001-3.999A2 2 0 0 1 114 192Zm-12 0a2 2 0 1 1-.001-3.999A2 2 0 0 1 102 192Zm-12 0a2 2 0 1 1 0-4 2 2 0 0 1 0 4Zm-12 0a2 2 0 1 1 0-4 2 2 0 0 1 0 4Zm-12 0a2 2 0 1 1 0-4 2 2 0 0 1 0 4Zm-12 0a2 2 0 1 1 0-4 2 2 0 0 1 0 4Zm-12 0a2 2 0 1 1 0-4 2 2 0 0 1 0 4Zm-12 0a2 2 0 1 1 0-4 2 2 0 0 1 0 4Zm-12 0a2 2 0 1 1 0-4 2 2 0 0 1 0 4Zm-12 0a2 2 0 1 1 0-4 2 2 0 0 1 0 4Z" opacity=".1"/><path d="M378 204a2 2 0 1 1-.001-3.999A2 2 0 0 1 378 204Zm-12 0a2 2 0 1 1-.001-3.999A2 2 0 0 1 366 204Zm-12 0a2 2 0 1 1-.001-3.999A2 2 0 0 1 354 204Zm-12 0a2 2 0 1 1-.001-3.999A2 2 0 0 1 342 204Zm-12 0a2 2 0 1 1-.001-3.999A2 2 0 0 1 330 204Zm-12 0a2 2 0 1 1-.001-3.999A2 2 0 0 1 318 204Zm-12 0a2 2 0 1 1-.001-3.999A2 2 0 0 1 306 204Zm-12 0a2 2 0 1 1-.001-3.999A2 2 0 0 1 294 204Zm-12 0a2 2 0 1 1-.001-3.999A2 2 0 0 1 282 204Zm-12 0a2 2 0 1 1-.001-3.999A2 2 0 0 1 270 204Zm-12 0a2 2 0 1 1-.001-3.999A2 2 0 0 1 258 204Zm-12 0a2 2 0 1 1-.001-3.999A2 2 0 0 1 246 204Zm-12 0a2 2 0 1 1-.001-3.999A2 2 0 0 1 234 204Zm-12 0a2 2 0 1 1-.001-3.999A2 2 0 0 1 222 204Zm-12 0a2 2 0 1 1-.001-3.999A2 2 0 0 1 210 204Zm-12 0a2 2 0 1 1-.001-3.999A2 2 0 0 1 198 204Zm-12 0a2 2 0 1 1-.001-3.999A2 2 0 0 1 186 204Zm-12 0a2 2 0 1 1-.001-3.999A2 2 0 0 1 174 204Zm-12 0a2 2 0 1 1-.001-3.999A2 2 0 0 1 162 204Zm-12 0a2 2 0 1 1-.001-3.999A2 2 0 0 1 150 204Zm-12 0a2 2 0 1 1-.001-3.999A2 2 0 0 1 138 204Zm-12 0a2 2 0 1 1-.001-3.999A2 2 0 0 1 126 204Zm-12 0a2 2 0 1 1-.001-3.999A2 2 0 0 1 114 204Zm-12 0a2 2 0 1 1-.001-3.999A2 2 0 0 1 102 204Zm-12 0a2 2 0 1 1 0-4 2 2 0 0 1 0 4Zm-12 0a2 2 0 1 1 0-4 2 2 0 0 1 0 4Zm-12 0a2 2 0 1 1 0-4 2 2 0 0 1 0 4Zm-12 0a2 2 0 1 1 0-4 2 2 0 0 1 0 4Zm-12 0a2 2 0 1 1 0-4 2 2 0 0 1 0 4Zm-12 0a2 2 0 1 1 0-4 2 2 0 0 1 0 4Zm-12 0a2 2 0 1 1 0-4 2 2 0 0 1 0 4Zm-12 0a2 2 0 1 1 0-4 2 2 0 0 1 0 4Z" opacity=".08"/><path d="M378 216a2 2 0 1 1-.001-3.999A2 2 0 0 1 378 216Zm-12 0a2 2 0 1 1-.001-3.999A2 2 0 0 1 366 216Zm-12 0a2 2 0 1 1-.001-3.999A2 2 0 0 1 354 216Zm-12 0a2 2 0 1 1-.001-3.999A2 2 0 0 1 342 216Zm-12 0a2 2 0 1 1-.001-3.999A2 2 0 0 1 330 216Zm-12 0a2 2 0 1 1-.001-3.999A2 2 0 0 1 318 216Zm-12 0a2 2 0 1 1-.001-3.999A2 2 0 0 1 306 216Zm-12 0a2 2 0 1 1-.001-3.999A2 2 0 0 1 294 216Zm-12 0a2 2 0 1 1-.001-3.999A2 2 0 0 1 282 216Zm-12 0a2 2 0 1 1-.001-3.999A2 2 0 0 1 270 216Zm-12 0a2 2 0 1 1-.001-3.999A2 2 0 0 1 258 216Zm-12 0a2 2 0 1 1-.001-3.999A2 2 0 0 1 246 216Zm-12 0a2 2 0 1 1-.001-3.999A2 2 0 0 1 234 216Zm-12 0a2 2 0 1 1-.001-3.999A2 2 0 0 1 222 216Zm-12 0a2 2 0 1 1-.001-3.999A2 2 0 0 1 210 216Zm-12 0a2 2 0 1 1-.001-3.999A2 2 0 0 1 198 216Zm-12 0a2 2 0 1 1-.001-3.999A2 2 0 0 1 186 216Zm-12 0a2 2 0 1 1-.001-3.999A2 2 0 0 1 174 216Zm-12 0a2 2 0 1 1-.001-3.999A2 2 0 0 1 162 216Zm-12 0a2 2 0 1 1-.001-3.999A2 2 0 0 1 150 216Zm-12 0a2 2 0 1 1-.001-3.999A2 2 0 0 1 138 216Zm-12 0a2 2 0 1 1-.001-3.999A2 2 0 0 1 126 216Zm-12 0a2 2 0 1 1-.001-3.999A2 2 0 0 1 114 216Zm-12 0a2 2 0 1 1-.001-3.999A2 2 0 0 1 102 216Zm-12 0a2 2 0 1 1 0-4 2 2 0 0 1 0 4Zm-12 0a2 2 0 1 1 0-4 2 2 0 0 1 0 4Zm-12 0a2 2 0 1 1 0-4 2 2 0 0 1 0 4Zm-12 0a2 2 0 1 1 0-4 2 2 0 0 1 0 4Zm-12 0a2 2 0 1 1 0-4 2 2 0 0 1 0 4Zm-12 0a2 2 0 1 1 0-4 2 2 0 0 1 0 4Zm-12 0a2 2 0 1 1 0-4 2 2 0 0 1 0 4Zm-12 0a2 2 0 1 1 0-4 2 2 0 0 1 0 4Z" opacity=".04"/></g></mask><g mask="url(#c)"><path fill="url(#d)" d="M0 0h384v262H0z"/></g><path fill="url(#e)" d="M0 0h384v262H0z"/><path fill="url(#f)" fill-opacity=".6" d="M0 0h384v262H0z"/><path fill="url(#g)" d="M0 0h384v262H0z"/></g><defs><radialGradient id="f" cx="0" cy="0" r="1" gradientTransform="matrix(0 145.5 -175.64 0 192 131)" gradientUnits="userSpaceOnUse"><stop offset=".645" stop-opacity="0"/><stop offset="1"/></radialGradient><radialGradient id="g" cx="0" cy="0" r="1" gradientTransform="matrix(0 173.5 -256.121 0 192 131)" gradientUnits="userSpaceOnUse"><stop offset=".681" stop-opacity="0"/><stop offset="1"/></radialGradient><linearGradient id="d" x1="0" x2="384" y1="131" y2="131" gradientUnits="userSpaceOnUse"><stop offset=".25" stop-color="#801BB2"/><stop offset="1" stop-color="#1A80FA"/></linearGradient><linearGradient id="e" x1="192" x2="192" y1="0" y2="262" gradientUnits="userSpaceOnUse"><stop offset=".531" stop-opacity="0"/><stop offset="1"/></linearGradient><clipPath id="a"><path fill="#fff" d="M0 0h384v262H0z"/></clipPath><clipPath id="b"><path fill="#fff" d="M384 0v262H0V0z"/></clipPath></defs></svg>