<svg xmlns="http://www.w3.org/2000/svg" fill="none" viewBox="0 0 384 262"><g clip-path="url(#a)"><path fill="#000" d="M0 0h384v262H0z"/><circle cx="192" cy="188" r="21.5" stroke="#0D0629"/><circle cx="192" cy="188" r="39.5" stroke="#0A0416"/><circle cx="192" cy="188" r="55.5" stroke="#1A092F"/><circle cx="192" cy="188" r="71.5" stroke="#11061A"/><circle cx="192" cy="188" r="87.5" stroke="#2B1038"/><path stroke="#3317A2" stroke-linejoin="round" d="M203.5 51c0 .128-.116.394-.697.737-.548.324-1.374.633-2.439.9-2.122.53-5.079.863-8.364.863-3.285 0-6.242-.333-8.364-.864-1.065-.266-1.891-.575-2.439-.899-.581-.343-.697-.609-.697-.737s.116-.394.697-.737c.548-.324 1.374-.633 2.439-.9 2.122-.53 5.079-.863 8.364-.863 3.285 0 6.242.333 8.364.864 1.065.266 1.891.575 2.439.899.581.343.697.609.697.737Z"/><path stroke="#4A1CAA" stroke-linejoin="round" stroke-width=".9" d="M210.55 60c0 .12-.056.284-.259.492-.204.21-.528.435-.985.662-.911.454-2.26.875-3.964 1.234-3.399.716-8.117 1.162-13.342 1.162s-9.943-.446-13.342-1.162c-1.704-.359-3.053-.78-3.964-1.234-.457-.227-.781-.452-.985-.662-.203-.208-.259-.371-.259-.492 0-.12.056-.284.259-.492.204-.21.528-.435.985-.662.911-.454 2.26-.875 3.964-1.234 3.399-.716 8.117-1.162 13.342-1.162s9.943.446 13.342 1.162c1.704.359 3.053.78 3.964 1.234.457.227.781.452.985.662.203.208.259.371.259.492Z"/><path stroke="#6524B7" stroke-linejoin="round" stroke-width=".8" d="M218.6 69c0 .237-.116.512-.431.825-.315.314-.802.636-1.464.956-1.323.637-3.263 1.221-5.693 1.716-4.853.989-11.575 1.603-19.012 1.603-7.437 0-14.159-.614-19.012-1.603-2.43-.495-4.37-1.08-5.693-1.716-.662-.32-1.149-.642-1.464-.956-.315-.313-.431-.588-.431-.825s.116-.512.431-.825c.315-.314.802-.636 1.464-.956 1.323-.637 3.263-1.221 5.693-1.716 4.853-.989 11.575-1.603 19.012-1.603 7.437 0 14.159.614 19.012 1.603 2.43.495 4.37 1.08 5.693 1.716.662.32 1.149.642 1.464.956.315.313.431.588.431.825Z"/><path stroke="#8430C9" stroke-linejoin="round" stroke-width=".6" d="M226.7 76c0 .374-.188.773-.621 1.196-.433.423-1.087.846-1.958 1.258-1.739.822-4.274 1.57-7.431 2.202-6.309 1.261-15.039 2.044-24.69 2.044-9.651 0-18.381-.783-24.69-2.044-3.157-.632-5.692-1.38-7.431-2.203-.871-.411-1.525-.834-1.958-1.257-.433-.422-.621-.822-.621-1.196s.188-.773.621-1.196c.433-.423 1.087-.846 1.958-1.258 1.739-.822 4.274-1.57 7.431-2.202 6.309-1.261 15.039-2.044 24.69-2.044 9.651 0 18.381.783 24.69 2.044 3.157.632 5.692 1.38 7.431 2.203.871.411 1.525.834 1.958 1.257.433.422.621.822.621 1.196Z"/><path stroke="#A73DDC" stroke-linejoin="round" stroke-width=".5" d="M235.75 85.5c0 .493-.257 1.004-.816 1.531-.558.527-1.395 1.047-2.496 1.55-2.2 1.005-5.399 1.916-9.373 2.684-7.942 1.534-18.926 2.485-31.065 2.485-12.139 0-23.123-.95-31.065-2.485-3.974-.768-7.173-1.679-9.373-2.684-1.101-.503-1.938-1.023-2.496-1.55-.559-.527-.816-1.038-.816-1.531 0-.493.257-1.004.816-1.531.558-.527 1.395-1.047 2.496-1.55 2.2-1.005 5.399-1.916 9.373-2.684 7.942-1.534 18.926-2.485 31.065-2.485 12.139 0 23.123.95 31.065 2.485 3.974.768 7.173 1.679 9.373 2.684 1.101.503 1.938 1.023 2.496 1.55.559.527.816 1.038.816 1.531Z"/><path stroke="#3317A2" stroke-linejoin="round" d="M316.396 129.459c-.112.064-.399.097-.988-.235-.554-.313-1.235-.874-1.997-1.662-1.521-1.573-3.288-3.967-4.93-6.812-1.643-2.845-2.833-5.573-3.434-7.675-.302-1.055-.448-1.925-.441-2.562.007-.675.178-.908.29-.972.111-.064.399-.097.987.235.554.313 1.235.873 1.998 1.662 1.52 1.572 3.287 3.967 4.93 6.812 1.642 2.845 2.832 5.573 3.434 7.675.301 1.055.447 1.925.44 2.562-.007.675-.178.908-.289.972Z"/><path stroke="#4A1CAA" stroke-linejoin="round" stroke-width=".9" d="M312.126 140.065c-.104.06-.274.093-.556.022-.283-.072-.64-.24-1.065-.522-.849-.563-1.888-1.52-3.051-2.816-2.319-2.587-5.064-6.449-7.677-10.974-2.613-4.525-4.585-8.834-5.665-12.136-.541-1.654-.85-3.033-.913-4.05-.032-.509 0-.902.08-1.184.079-.279.193-.409.297-.47.105-.06.274-.093.556-.022.284.072.64.24 1.066.522.849.563 1.888 1.52 3.05 2.816 2.32 2.586 5.065 6.449 7.678 10.974 2.612 4.525 4.585 8.834 5.665 12.136.541 1.654.85 3.033.913 4.05.032.509-.001.902-.081 1.183-.079.28-.192.41-.297.471Z"/><path stroke="#6524B7" stroke-linejoin="round" stroke-width=".8" d="M308.357 151.536c-.205.119-.501.155-.93.04-.43-.117-.952-.377-1.559-.791-1.214-.827-2.69-2.215-4.333-4.072-3.283-3.708-7.176-9.222-10.895-15.663-3.718-6.441-6.547-12.57-8.117-17.266-.787-2.352-1.25-4.324-1.36-5.789-.055-.733-.019-1.315.095-1.746.114-.429.294-.667.499-.785.205-.119.501-.156.93-.04.43.116.952.377 1.56.791 1.213.827 2.689 2.215 4.333 4.071 3.282 3.709 7.175 9.223 10.894 15.664 3.719 6.441 6.548 12.569 8.118 17.266.786 2.352 1.25 4.324 1.359 5.788.055.734.02 1.316-.095 1.747-.114.429-.294.667-.499.785Z"/><path stroke="#8430C9" stroke-linejoin="round" stroke-width=".6" d="M306.345 162.051c-.324.187-.764.224-1.346.06-.583-.163-1.277-.519-2.068-1.067-1.582-1.094-3.498-2.916-5.623-5.334-4.247-4.833-9.29-12.002-14.115-20.36-4.826-8.358-8.513-16.31-10.575-22.404-1.032-3.05-1.651-5.62-1.808-7.537-.079-.96-.041-1.738.109-2.325.15-.585.402-.948.726-1.135.324-.187.764-.224 1.346-.061.583.164 1.277.519 2.068 1.067 1.582 1.095 3.498 2.917 5.623 5.335 4.247 4.833 9.29 12.002 14.115 20.36 4.826 8.358 8.513 16.309 10.575 22.404 1.031 3.05 1.651 5.62 1.808 7.537.079.959.041 1.738-.109 2.324-.15.586-.402.949-.726 1.136Z"/><path stroke="#A73DDC" stroke-linejoin="round" stroke-width=".5" d="M302.643 174.639c-.427.246-.999.279-1.734.059-.736-.22-1.605-.685-2.59-1.387-1.971-1.403-4.36-3.718-7.011-6.775-5.3-6.112-11.615-15.148-17.685-25.661-6.07-10.513-10.738-20.5-13.381-28.146-1.321-3.825-2.132-7.051-2.362-9.459-.115-1.205-.083-2.19.094-2.937.178-.747.492-1.225.919-1.472.426-.246.998-.279 1.734-.06.735.22 1.604.686 2.59 1.388 1.97 1.403 4.359 3.718 7.011 6.775 5.3 6.111 11.615 15.148 17.684 25.661 6.07 10.513 10.738 20.5 13.381 28.146 1.322 3.825 2.132 7.051 2.362 9.459.115 1.205.083 2.19-.094 2.937-.177.746-.492 1.225-.918 1.472Z"/><path stroke="#3317A2" stroke-linejoin="round" d="M67.605 246.54c.11-.064.398-.096.987.236.554.312 1.235.873 1.998 1.662 1.52 1.572 3.287 3.967 4.93 6.812 1.642 2.845 2.832 5.573 3.434 7.675.301 1.055.447 1.925.44 2.561-.007.676-.178.909-.29.973-.11.064-.398.096-.987-.235-.554-.313-1.235-.874-1.998-1.663-1.52-1.572-3.287-3.966-4.93-6.811-1.642-2.845-2.832-5.573-3.433-7.676-.302-1.055-.448-1.924-.441-2.561.007-.675.178-.908.29-.973Z"/><path stroke="#4A1CAA" stroke-linejoin="round" stroke-width=".9" d="M71.874 235.935c.105-.06.274-.093.556-.022.284.072.64.24 1.065.522.85.563 1.888 1.52 3.05 2.816 2.32 2.586 5.066 6.449 7.678 10.974 2.613 4.525 4.585 8.834 5.665 12.136.541 1.654.85 3.033.913 4.05.032.509 0 .902-.08 1.183-.08.28-.193.41-.297.471-.105.06-.274.093-.556.022-.284-.072-.64-.24-1.066-.522-.849-.563-1.888-1.52-3.05-2.816-2.32-2.587-5.065-6.449-7.678-10.974-2.612-4.525-4.584-8.834-5.665-12.136-.54-1.655-.85-3.033-.913-4.05-.031-.509 0-.902.08-1.184.08-.279.193-.409.298-.47Z"/><path stroke="#6524B7" stroke-linejoin="round" stroke-width=".8" d="M75.643 224.464c.205-.119.501-.156.93-.04.43.116.952.377 1.56.791 1.213.827 2.69 2.215 4.333 4.071 3.282 3.709 7.175 9.223 10.894 15.664 3.718 6.441 6.547 12.569 8.118 17.266.786 2.352 1.25 4.324 1.359 5.788.055.734.019 1.316-.095 1.747-.114.429-.294.667-.499.785-.205.119-.501.155-.93.04-.43-.117-.952-.377-1.56-.791-1.213-.827-2.69-2.215-4.333-4.072-3.282-3.708-7.175-9.222-10.894-15.663-3.718-6.441-6.547-12.57-8.118-17.266-.786-2.352-1.25-4.324-1.36-5.789-.054-.733-.018-1.315.096-1.746.114-.429.294-.667.499-.785Z"/><path stroke="#8430C9" stroke-linejoin="round" stroke-width=".6" d="M77.655 213.949c.324-.187.764-.224 1.346-.061.584.164 1.277.519 2.068 1.067 1.582 1.095 3.498 2.917 5.623 5.335 4.247 4.833 9.29 12.002 14.116 20.36 4.825 8.358 8.512 16.309 10.574 22.404 1.032 3.05 1.651 5.62 1.809 7.537.078.959.04 1.738-.11 2.324-.15.586-.402.949-.726 1.136-.324.187-.764.224-1.346.06-.583-.163-1.277-.519-2.068-1.066-1.582-1.095-3.497-2.917-5.623-5.335-4.247-4.833-9.29-12.002-14.115-20.36-4.826-8.358-8.513-16.31-10.575-22.404-1.031-3.05-1.65-5.62-1.808-7.537-.079-.96-.04-1.738.11-2.324.15-.586.401-.949.725-1.136Z"/><path stroke="#A73DDC" stroke-linejoin="round" stroke-width=".5" d="M81.357 201.361c.427-.246.999-.279 1.734-.059.736.22 1.605.685 2.59 1.387 1.971 1.403 4.36 3.718 7.011 6.775 5.3 6.111 11.615 15.148 17.685 25.661 6.07 10.513 10.738 20.5 13.381 28.146 1.322 3.825 2.132 7.051 2.362 9.459.115 1.205.083 2.19-.094 2.937-.177.746-.492 1.225-.919 1.471-.426.247-.998.28-1.733.06-.736-.22-1.605-.685-2.591-1.387-1.97-1.403-4.359-3.718-7.011-6.775-5.3-6.112-11.615-15.148-17.684-25.661-6.07-10.513-10.738-20.5-13.38-28.146-1.323-3.825-2.133-7.051-2.363-9.459-.115-1.205-.083-2.19.094-2.937.177-.747.492-1.225.918-1.472Z"/><path stroke="#3317A2" stroke-linejoin="round" d="M304.896 266.459c-.112-.064-.283-.297-.29-.972-.007-.637.139-1.507.441-2.562.601-2.102 1.791-4.83 3.434-7.675 1.642-2.845 3.409-5.24 4.93-6.812.762-.789 1.443-1.349 1.997-1.662.589-.332.876-.299.988-.235.111.064.282.297.289.972.007.637-.139 1.507-.44 2.562-.602 2.102-1.792 4.83-3.434 7.675-1.643 2.845-3.41 5.239-4.93 6.812-.763.788-1.444 1.349-1.998 1.662-.588.332-.876.299-.987.235Z"/><path stroke="#4A1CAA" stroke-linejoin="round" stroke-width=".9" d="M293.576 268.065c-.104-.061-.218-.191-.297-.471-.08-.281-.112-.674-.08-1.183.063-1.017.372-2.396.913-4.05 1.08-3.302 3.052-7.611 5.665-12.136 2.613-4.525 5.358-8.388 7.677-10.974 1.163-1.296 2.202-2.253 3.051-2.816.425-.282.782-.45 1.065-.522.282-.071.452-.038.556.022.105.061.218.191.297.47.08.282.113.675.081 1.184-.063 1.017-.372 2.396-.913 4.05-1.08 3.302-3.053 7.611-5.665 12.136-2.613 4.525-5.358 8.387-7.678 10.974-1.162 1.296-2.201 2.253-3.05 2.816-.426.282-.782.45-1.066.522-.282.071-.451.038-.556-.022Z"/><path stroke="#6524B7" stroke-linejoin="round" stroke-width=".8" d="M281.757 270.536c-.205-.118-.385-.356-.499-.785-.114-.431-.15-1.013-.095-1.747.11-1.464.573-3.436 1.36-5.788 1.57-4.697 4.399-10.825 8.117-17.266 3.719-6.441 7.612-11.955 10.895-15.664 1.643-1.856 3.119-3.244 4.333-4.071.607-.414 1.129-.675 1.559-.791.429-.116.725-.079.93.04.205.118.385.356.499.785.115.431.15 1.013.095 1.746-.109 1.465-.573 3.437-1.359 5.789-1.57 4.696-4.399 10.825-8.118 17.266-3.719 6.441-7.612 11.955-10.894 15.663-1.644 1.857-3.12 3.245-4.333 4.072-.608.414-1.13.674-1.56.791-.429.115-.725.079-.93-.04Z"/><path stroke="#8430C9" stroke-linejoin="round" stroke-width=".6" d="M271.645 274.051c-.324-.187-.576-.55-.726-1.136-.15-.586-.188-1.365-.109-2.324.157-1.917.776-4.487 1.808-7.537 2.062-6.095 5.749-14.046 10.575-22.404 4.825-8.358 9.868-15.527 14.115-20.36 2.125-2.418 4.041-4.24 5.623-5.335.791-.548 1.485-.903 2.068-1.067.582-.163 1.022-.126 1.346.061.324.187.576.55.726 1.135.15.587.188 1.365.109 2.325-.157 1.917-.777 4.487-1.808 7.537-2.062 6.094-5.749 14.046-10.575 22.404-4.825 8.358-9.868 15.527-14.115 20.36-2.125 2.418-4.041 4.24-5.623 5.334-.791.548-1.485.904-2.068 1.067-.582.164-1.022.127-1.346-.06Z"/><path stroke="#A73DDC" stroke-linejoin="round" stroke-width=".5" d="M258.893 277.139c-.427-.247-.741-.726-.919-1.472-.177-.747-.209-1.732-.094-2.937.23-2.408 1.041-5.634 2.362-9.459 2.643-7.646 7.311-17.633 13.381-28.146 6.07-10.513 12.385-19.55 17.685-25.661 2.651-3.057 5.04-5.372 7.011-6.775.985-.702 1.854-1.167 2.59-1.387.735-.22 1.307-.187 1.734.059.426.247.741.725.918 1.472.177.747.209 1.732.094 2.937-.23 2.408-1.04 5.634-2.362 9.459-2.643 7.646-7.311 17.633-13.381 28.146-6.069 10.513-12.384 19.549-17.684 25.661-2.652 3.057-5.041 5.372-7.011 6.775-.986.702-1.855 1.167-2.59 1.387-.736.22-1.308.187-1.734-.059Z"/><path stroke="#3317A2" stroke-linejoin="round" d="M79.105 109.54c.11.065.283.298.29.973.006.637-.14 1.506-.441 2.561-.602 2.103-1.792 4.831-3.434 7.676-1.643 2.845-3.41 5.239-4.93 6.811-.763.789-1.444 1.35-1.998 1.663-.588.331-.876.299-.987.235-.111-.064-.283-.297-.29-.973-.007-.636.139-1.506.44-2.561.602-2.102 1.792-4.83 3.435-7.675 1.642-2.845 3.41-5.24 4.93-6.812.762-.789 1.443-1.35 1.997-1.662.589-.332.877-.3.988-.236Z"/><path stroke="#4A1CAA" stroke-linejoin="round" stroke-width=".9" d="M90.424 107.935c.105.061.218.191.297.47.08.282.112.675.08 1.184-.062 1.017-.372 2.396-.913 4.05-1.08 3.302-3.052 7.611-5.665 12.136-2.612 4.525-5.358 8.387-7.677 10.974-1.163 1.296-2.202 2.253-3.05 2.816-.426.282-.782.45-1.066.522-.282.071-.451.038-.556-.022-.105-.061-.218-.191-.297-.471-.08-.281-.112-.674-.08-1.183.062-1.017.371-2.396.913-4.05 1.08-3.302 3.052-7.611 5.665-12.136 2.612-4.525 5.357-8.388 7.677-10.974 1.162-1.296 2.202-2.253 3.05-2.816.426-.282.782-.45 1.066-.522.282-.071.451-.038.556.022Z"/><path stroke="#6524B7" stroke-linejoin="round" stroke-width=".8" d="M102.243 105.464c.205.118.385.356.499.785.114.431.15 1.013.095 1.746-.109 1.465-.573 3.437-1.359 5.789-1.57 4.696-4.4 10.825-8.118 17.266-3.719 6.441-7.612 11.955-10.894 15.663-1.644 1.857-3.12 3.245-4.333 4.072-.608.414-1.13.674-1.56.791-.429.115-.725.079-.93-.04-.205-.118-.385-.356-.499-.785-.114-.431-.15-1.013-.095-1.747.11-1.464.573-3.436 1.36-5.788 1.57-4.697 4.399-10.825 8.117-17.266 3.719-6.441 7.612-11.955 10.895-15.664 1.643-1.856 3.12-3.244 4.332-4.071.608-.414 1.13-.675 1.56-.791.429-.116.725-.079.93.04Z"/><path stroke="#8430C9" stroke-linejoin="round" stroke-width=".6" d="M112.355 101.949c.324.187.576.55.726 1.136.15.586.188 1.364.11 2.324-.158 1.917-.777 4.487-1.809 7.537-2.062 6.094-5.749 14.046-10.574 22.404-4.826 8.358-9.869 15.527-14.116 20.36-2.125 2.418-4.041 4.24-5.622 5.335-.792.547-1.485.903-2.068 1.066-.583.164-1.023.127-1.347-.06-.324-.187-.575-.55-.725-1.136-.15-.586-.189-1.365-.11-2.324.157-1.917.777-4.487 1.809-7.537 2.061-6.095 5.748-14.046 10.574-22.404s9.868-15.527 14.115-20.36c2.126-2.418 4.042-4.24 5.623-5.335.792-.548 1.485-.903 2.068-1.067.582-.163 1.022-.126 1.346.061Z"/><path stroke="#A73DDC" stroke-linejoin="round" stroke-width=".5" d="M125.108 98.861c.426.247.741.725.918 1.472.177.747.209 1.732.094 2.937-.23 2.408-1.04 5.634-2.362 9.459-2.643 7.646-7.311 17.633-13.381 28.146-6.069 10.513-12.384 19.549-17.684 25.661-2.652 3.057-5.04 5.372-7.011 6.775-.986.702-1.855 1.167-2.59 1.387-.736.22-1.308.187-1.734-.06-.427-.246-.742-.725-.919-1.471-.177-.747-.209-1.732-.094-2.937.23-2.408 1.04-5.634 2.362-9.459 2.643-7.646 7.311-17.633 13.38-28.146 6.071-10.513 12.386-19.55 17.686-25.661 2.651-3.057 5.04-5.372 7.01-6.775.986-.702 1.855-1.167 2.591-1.387.735-.22 1.307-.187 1.734.06Z"/><path fill="url(#b)" d="M0 0h384v262H0z"/><path fill="url(#c)" d="M0 0h384v262H0z"/><path fill="url(#d)" d="M0 0h384v262H0z"/></g><defs><linearGradient id="b" x1="192" x2="192" y1="0" y2="262" gradientUnits="userSpaceOnUse"><stop offset=".848" stop-opacity="0"/><stop offset="1"/><stop offset="1" stop-opacity="0"/></linearGradient><linearGradient id="c" x1="384" x2="0" y1="131" y2="131" gradientUnits="userSpaceOnUse"><stop offset=".786" stop-opacity="0"/><stop offset="1"/></linearGradient><linearGradient id="d" x1="0" x2="384" y1="131" y2="131" gradientUnits="userSpaceOnUse"><stop offset=".786" stop-opacity="0"/><stop offset="1"/></linearGradient><clipPath id="a"><path fill="#fff" d="M0 0h384v262H0z"/></clipPath></defs></svg>