<svg width="437" height="413" viewBox="0 0 437 413" fill="none" xmlns="http://www.w3.org/2000/svg">
<g opacity="0.32" filter="url(#filter0_f_397_1597)">
<circle cx="218.5" cy="196" r="28.125" fill="white"/>
</g>
<path d="M277.696 193.293C277.842 195.603 279.708 197.511 282.063 197.511H432.25C434.596 197.511 436.508 195.598 436.467 193.243C434.979 107.737 382.934 34.3913 308.569 1.0561C305.299 -0.409912 301.484 1.13161 300.093 4.39295L243.565 136.958C242.168 140.234 243.758 143.932 246.856 145.599C264.265 154.966 276.386 172.685 277.696 193.293ZM256.426 250.074C254.375 247.157 250.364 246.5 247.278 248.192C238.756 252.867 228.944 255.529 218.5 255.529C208.056 255.529 198.244 252.866 189.722 248.192C186.637 246.5 182.625 247.157 180.574 250.074L97.4973 368.214C95.4543 371.12 96.1744 375.128 99.1822 377.073C133.463 399.237 174.457 412.125 218.5 412.125C262.543 412.125 303.537 399.237 337.818 377.073C340.826 375.128 341.546 371.12 339.503 368.215L256.426 250.074ZM190.145 145.599C193.243 143.932 194.833 140.234 193.436 136.958L136.908 4.39278C135.517 1.13145 131.702 -0.410076 128.432 1.05593C54.067 34.3911 2.02082 107.736 0.532757 193.243C0.491783 195.597 2.40358 197.51 4.74998 197.51L154.937 197.511C157.292 197.511 159.158 195.603 159.305 193.293C160.614 172.685 172.736 154.965 190.145 145.599ZM218.5 235.07C239.791 235.07 257.063 218.037 257.063 197.012C257.063 175.987 239.791 158.954 218.5 158.954C197.209 158.954 179.938 175.987 179.938 197.012C179.938 218.037 197.209 235.07 218.5 235.07Z" fill="black"/>
<path d="M277.696 193.293C277.842 195.603 279.708 197.511 282.063 197.511H432.25C434.596 197.511 436.508 195.598 436.467 193.243C434.979 107.737 382.934 34.3913 308.569 1.0561C305.299 -0.409912 301.484 1.13161 300.093 4.39295L243.565 136.958C242.168 140.234 243.758 143.932 246.856 145.599C264.265 154.966 276.386 172.685 277.696 193.293ZM256.426 250.074C254.375 247.157 250.364 246.5 247.278 248.192C238.756 252.867 228.944 255.529 218.5 255.529C208.056 255.529 198.244 252.866 189.722 248.192C186.637 246.5 182.625 247.157 180.574 250.074L97.4973 368.214C95.4543 371.12 96.1744 375.128 99.1822 377.073C133.463 399.237 174.457 412.125 218.5 412.125C262.543 412.125 303.537 399.237 337.818 377.073C340.826 375.128 341.546 371.12 339.503 368.215L256.426 250.074ZM190.145 145.599C193.243 143.932 194.833 140.234 193.436 136.958L136.908 4.39278C135.517 1.13145 131.702 -0.410076 128.432 1.05593C54.067 34.3911 2.02082 107.736 0.532757 193.243C0.491783 195.597 2.40358 197.51 4.74998 197.51L154.937 197.511C157.292 197.511 159.158 195.603 159.305 193.293C160.614 172.685 172.736 154.965 190.145 145.599ZM218.5 235.07C239.791 235.07 257.063 218.037 257.063 197.012C257.063 175.987 239.791 158.954 218.5 158.954C197.209 158.954 179.938 175.987 179.938 197.012C179.938 218.037 197.209 235.07 218.5 235.07Z" stroke="url(#paint0_linear_397_1597)"/>
<path d="M277.696 193.293C277.842 195.603 279.708 197.511 282.063 197.511H432.25C434.596 197.511 436.508 195.598 436.467 193.243C434.979 107.737 382.934 34.3913 308.569 1.0561C305.299 -0.409912 301.484 1.13161 300.093 4.39295L243.565 136.958C242.168 140.234 243.758 143.932 246.856 145.599C264.265 154.966 276.386 172.685 277.696 193.293ZM256.426 250.074C254.375 247.157 250.364 246.5 247.278 248.192C238.756 252.867 228.944 255.529 218.5 255.529C208.056 255.529 198.244 252.866 189.722 248.192C186.637 246.5 182.625 247.157 180.574 250.074L97.4973 368.214C95.4543 371.12 96.1744 375.128 99.1822 377.073C133.463 399.237 174.457 412.125 218.5 412.125C262.543 412.125 303.537 399.237 337.818 377.073C340.826 375.128 341.546 371.12 339.503 368.215L256.426 250.074ZM190.145 145.599C193.243 143.932 194.833 140.234 193.436 136.958L136.908 4.39278C135.517 1.13145 131.702 -0.410076 128.432 1.05593C54.067 34.3911 2.02082 107.736 0.532757 193.243C0.491783 195.597 2.40358 197.51 4.74998 197.51L154.937 197.511C157.292 197.511 159.158 195.603 159.305 193.293C160.614 172.685 172.736 154.965 190.145 145.599ZM218.5 235.07C239.791 235.07 257.063 218.037 257.063 197.012C257.063 175.987 239.791 158.954 218.5 158.954C197.209 158.954 179.938 175.987 179.938 197.012C179.938 218.037 197.209 235.07 218.5 235.07Z" stroke="url(#paint1_linear_397_1597)"/>
<defs>
<filter id="filter0_f_397_1597" x="139.75" y="117.25" width="157.5" height="157.5" filterUnits="userSpaceOnUse" color-interpolation-filters="sRGB">
<feFlood flood-opacity="0" result="BackgroundImageFix"/>
<feBlend mode="normal" in="SourceGraphic" in2="BackgroundImageFix" result="shape"/>
<feGaussianBlur stdDeviation="25.3125" result="effect1_foregroundBlur_397_1597"/>
</filter>
<linearGradient id="paint0_linear_397_1597" x1="218.5" y1="1" x2="218.5" y2="411.625" gradientUnits="userSpaceOnUse">
<stop stop-color="white"/>
<stop offset="0.624297" stop-color="white" stop-opacity="0.5"/>
<stop offset="1" stop-color="white" stop-opacity="0.3"/>
</linearGradient>
<linearGradient id="paint1_linear_397_1597" x1="218.5" y1="1" x2="218.5" y2="411.625" gradientUnits="userSpaceOnUse">
<stop offset="0.5625" stop-opacity="0"/>
<stop offset="0.848958"/>
</linearGradient>
</defs>
</svg>
